<?xml version="1.0" encoding="utf-8"?>
<!-- Generator: Adobe Illustrator 14.0.0, SVG Export Plug-In . SVG Version: 6.00 Build 43363)  -->
<!DOCTYPE svg PUBLIC "-//W3C//DTD SVG 1.1//EN" "http://www.w3.org/Graphics/SVG/1.1/DTD/svg11.dtd">
<svg version="1.1" id="图层_1" xmlns="http://www.w3.org/2000/svg" xmlns:xlink="http://www.w3.org/1999/xlink" x="0px" y="0px"
	 width="394.386px" height="82.314px" viewBox="0 0 394.386 82.314" enable-background="new 0 0 394.386 82.314"
	 xml:space="preserve">
<g>
	<g>
		<path fill="#ED1A3B" d="M301.243,75.018c0,3.367,1.862,6.039,4.97,6.039c1.134,0,3.756-0.551,3.756-5.23
			c0-3.625-2.088-5.875-4.742-5.875C303.364,69.951,301.243,70.986,301.243,75.018 M245.962,72.508l-1.489,3.982
			c-0.017,0.064,0,0.113,0.064,0.113h2.979c0.081,0,0.098-0.049,0.081-0.098l-1.457-3.998c-0.016-0.064-0.031-0.146-0.081-0.146
			C246.01,72.361,245.979,72.443,245.962,72.508 M212.803,75.018c0,3.367,1.862,6.039,4.972,6.039c1.133,0,3.756-0.551,3.756-5.23
			c0-3.625-2.089-5.875-4.744-5.875C214.924,69.951,212.803,70.986,212.803,75.018 M77.935,36.297c1.897,0,5.952,0,10.883,0v-20.73
			H77.935V36.297z M96.906,36.297c3.571,0,7.143,0,10.413,0V15.686l-0.067-0.119H96.888L96.906,36.297z M161.239,42.959
			c0.067,0.982-1.017,1.229-1.017,1.229h-15.392c-3.722,0-11.394,0.301-11.394,0.301l-1.306-1.838c0,0,1.657,0.086,3.317,0.117
			c0.002,0,2.596,0,5.753,0.002V27.104c-2.83,0.086-5.405,0.244-5.405,0.244l-1.305-1.838c0,0,1.656,0.086,3.316,0.117
			c0.002,0,1.48,0.002,3.394,0.002V14.303c-3.226,0.088-6.5,0.24-6.5,0.24l-1.306-1.838c0,0,1.658,0.086,3.316,0.115
			c0.004,0.002,14.766,0.006,14.766,0.006l2.547-3.402c0,0,0.503-0.764,1.263-0.764c0.61,0,0.94,0.238,1.813,0.994
			c1.322,1.146,3.006,2.656,3.055,3.357c0.066,0.984-1.016,1.23-1.016,1.23h-10.707v11.389c1.481,0,2.554,0,2.554,0l2.548-3.07
			c0,0,0.449-0.764,1.209-0.764c0.611,0,0.723,0.066,1.425,0.664c1.334,1.131,3.007,2.656,3.054,3.357
			c0.068,0.984-1.015,1.229-1.015,1.229h-9.774V42.77c2.34,0.002,4.127,0.002,4.127,0.002l2.549-3.402c0,0,0.431-0.529,1.041-0.674
			c-0.025-0.004-0.049,0.012-0.073,0.006c-2.281-0.449-2.177-2.031-2.97-4.057c-0.791-2.025-3.246-4.498-3.246-4.498
			c5.045-0.498,8.822,0.912,9.645,3.445c1.082,3.328-0.798,5.145-2.892,5.078c0.463,0.066,0.827,0.289,1.569,0.93
			C159.507,40.746,161.191,42.256,161.239,42.959 M162.428,50.08l0.028-43.059h-31.082l-0.078,0.033v43.023
			C145.329,50.08,159.635,50.08,162.428,50.08 M183.464,72.508l-1.489,3.982c-0.017,0.064,0,0.113,0.064,0.113h2.979
			c0.082,0,0.098-0.049,0.082-0.098l-1.457-3.998c-0.017-0.064-0.033-0.146-0.082-0.146S183.48,72.443,183.464,72.508
			 M216.873,42.959c0.068,0.982-1.015,1.229-1.015,1.229h-15.394c-3.722,0-11.393,0.301-11.393,0.301l-1.305-1.838
			c0,0,1.656,0.086,3.315,0.117c0.002,0,2.597,0,5.754,0.002V27.104c-2.831,0.086-5.405,0.244-5.405,0.244l-1.306-1.838
			c0,0,1.657,0.086,3.317,0.117c0,0,1.479,0.002,3.394,0.002V14.303c-3.227,0.088-6.501,0.24-6.501,0.24l-1.305-1.838
			c0,0,1.656,0.086,3.316,0.115c0.004,0.002,14.765,0.006,14.765,0.006l2.548-3.402c0,0,0.502-0.764,1.262-0.764
			c0.611,0,0.94,0.238,1.814,0.994c1.322,1.146,3.006,2.656,3.054,3.357c0.068,0.984-1.015,1.23-1.015,1.23h-10.708v11.389
			c1.481,0,2.554,0,2.554,0l2.549-3.07c0,0,0.448-0.764,1.208-0.764c0.611,0,0.722,0.066,1.425,0.664
			c1.334,1.131,3.008,2.656,3.056,3.357c0.066,0.984-1.017,1.229-1.017,1.229h-9.774V42.77c2.341,0.002,4.128,0.002,4.128,0.002
			l2.548-3.402c0,0,0.431-0.529,1.042-0.674c-0.026-0.004-0.049,0.012-0.074,0.006c-2.281-0.449-2.177-2.031-2.969-4.057
			s-3.246-4.498-3.246-4.498c5.044-0.498,8.821,0.912,9.645,3.445c1.081,3.328-0.799,5.145-2.893,5.078
			c0.463,0.066,0.829,0.289,1.57,0.93C215.141,40.746,216.825,42.256,216.873,42.959 M218.063,50.08l0.027-43.059h-31.082
			l-0.078,0.033v43.023C200.964,50.08,215.27,50.08,218.063,50.08 M347.896,72.508l-1.489,3.982c-0.017,0.064,0,0.113,0.064,0.113
			h2.979c0.081,0,0.098-0.049,0.081-0.098l-1.457-3.998c-0.017-0.064-0.032-0.146-0.081-0.146
			C347.944,72.361,347.911,72.443,347.896,72.508 M335.316,75.551c0.485-0.355,0.955-1.1,0.955-2.428
			c0-2.299-1.521-2.963-2.477-2.963c-0.405,0-0.697,0.016-0.858,0.064c-0.113,0.033-0.146,0.098-0.146,0.229v4.92
			c0,0.178,0.032,0.244,0.146,0.293c0.34,0.111,0.825,0.16,1.23,0.16C334.814,75.826,335.025,75.762,335.316,75.551 M357.252,21.904
			c0.841,0.857,1.61,1.648,2.055,2.199V8.678c-0.149,0.242-0.357,0.416-0.357,0.416h-5.603c-0.024,0-0.06,0.002-0.087,0.002v14.879
			c0.34,0.002,0.58,0.002,0.58,0.002l1.569-2.576c0,0,0.256-0.412,0.569-0.443C356.257,20.928,356.734,21.377,357.252,21.904
			 M366.217,18.574c1.806,0,3.62,0,5.356,0V6.693h-5.356V18.574z M366.217,32.184c1.81,0,3.628,0,5.356,0V19.992h-5.356V32.184z
			 M379.647,18.576c2.599,0,4.574,0,5.419,0l0.011-11.883h-5.43V18.576z M379.647,32.184c2.98,0.002,5.071,0.002,5.405,0.002
			l0.001-0.072l0.012-12.121h-5.418V32.184z M394.386,69.529c0,0.113-0.13,0.162-0.308,0.162c-0.162,0-0.47,0.064-0.712,0.193
			c-0.34,0.162-0.519,0.357-0.875,0.793c-0.534,0.648-2.8,4.453-3.092,5.148c-0.243,0.584-0.243,1.086-0.243,1.619v1.328
			c0,0.26,0,0.939,0.049,1.619c0.032,0.469,0.178,0.826,0.664,0.891c0.226,0.031,0.583,0.064,0.809,0.064
			c0.179,0,0.26,0.049,0.26,0.129c0,0.113-0.129,0.162-0.341,0.162c-1.02,0-2.04-0.049-2.477-0.049
			c-0.405,0-1.425,0.049-2.024,0.049c-0.226,0-0.355-0.033-0.355-0.162c0-0.08,0.081-0.129,0.259-0.129
			c0.228,0,0.421-0.033,0.567-0.064c0.323-0.064,0.469-0.422,0.502-0.891c0.048-0.68,0.048-1.359,0.048-1.619v-1.328
			c0-0.875-0.161-1.23-0.372-1.699c-0.113-0.26-2.283-3.82-2.849-4.662c-0.405-0.6-0.811-1.004-1.117-1.184
			c-0.211-0.111-0.486-0.209-0.681-0.209c-0.13,0-0.242-0.033-0.242-0.146c0-0.098,0.112-0.146,0.308-0.146
			c0.291,0,1.505,0.049,2.039,0.049c0.34,0,1.004-0.049,1.733-0.049c0.16,0,0.241,0.049,0.241,0.146s-0.112,0.113-0.355,0.178
			c-0.146,0.033-0.227,0.162-0.227,0.293c0,0.129,0.081,0.322,0.194,0.549c0.227,0.486,2.493,4.389,2.752,4.842
			c0.162-0.389,2.202-3.951,2.429-4.451c0.161-0.357,0.227-0.633,0.227-0.844c0-0.16-0.065-0.34-0.34-0.404
			c-0.146-0.031-0.291-0.064-0.291-0.162c0-0.113,0.081-0.146,0.274-0.146c0.534,0,1.053,0.049,1.522,0.049
			c0.355,0,1.425-0.049,1.731-0.049C394.272,69.398,394.386,69.432,394.386,69.529 M379.647,44.129v8.668c2.721,0,4.615,0,4.615,0
			l3.079-4.102c0,0,0.576-0.879,1.449-0.879c0.702,0,1.08,0.275,2.083,1.145c1.519,1.314,3.453,3.049,3.508,3.855
			c0.078,1.131-1.166,1.412-1.166,1.412l-26.254-0.012c-3.723,0-10.13,0.301-10.13,0.301l-1.305-1.838c0,0,1.656,0.086,3.316,0.117
			c0.001,0,6.368,0,12.729,0v-8.668h-0.629c-3.724,0-10.129,0.301-10.129,0.301l-1.307-1.838c0,0,1.657,0.086,3.317,0.117
			c0.001,0,4.186,0.002,8.747,0.002V33.6h-5.356v1.779c0,0.762-0.108,1.357-0.966,1.969c-0.864,0.613-1.906,0.91-3.481,1.059
			c-1.618,0.152-2.236,0-2.485-0.371c-0.25-0.373-0.291-0.801-0.291-1.271c0,0,0.313-4.771,0.313-5.676v-6.113
			c-0.149,0.244-0.357,0.418-0.357,0.418h-5.603c-0.025,0-0.06,0-0.087,0v16.094l6.61-1.961l0.644,0.359
			c0,0-11.13,7.756-14.086,11.789c-1.249,1.703-1.768,1.775-2.259,1.039c-0.319-0.479-2.601-6.156-2.72-6.623
			c-0.141-0.549,0.449-0.771,0.449-0.771s1.854-0.678,3.305-1.221c1.18-0.314,1.359-1.5,1.405-2.016
			c0.001-1.975,0.001-9.049,0.002-16.541c-2.249,0.076-4.038,0.15-4.038,0.15l-1.305-1.836c0,0,1.656,0.084,3.316,0.115
			c0.001,0,0.867,0.002,2.026,0.002c0.001-5.492,0.001-10.951,0.002-14.744c-2.705,0.08-5.011,0.166-5.011,0.166l-1.307-1.838
			c0,0,1.657,0.086,3.317,0.117c0.004,0,10.228,0.004,10.228,0.004l1.569-2.574c0,0,0.256-0.412,0.569-0.443
			c0.278-0.029,0.756,0.42,1.273,0.947c0.841,0.857,1.61,1.646,2.055,2.197V5.891c0-0.799-0.258-3.27-0.258-3.518
			c0-0.504,0.281-0.762,0.569-0.762c0.339-0.025,0.645,0.156,1.428,0.58l5.679,3.084c7.88,0.002,15.472,0.002,17.737,0.002
			c0.616-0.865,1.12-1.561,1.517-2.082c0.395-0.521,0.726-0.813,0.994-0.877c0.285-0.063,0.695,0.025,1.232,0.262
			c1.485,0.711,2.701,1.477,3.65,2.297c0.963,0.82,1.444,1.373,1.444,1.658c-0.016,0.348-0.458,0.939-1.327,1.775
			c0,0,0.002,16.348,0.002,18.205c0,3.188,0.305,6.807,0.273,7.734c-0.03,0.926,0.126,1.279-1.379,1.941
			c-1.514,0.664-2.497,0.738-3.635,0.734c-1-0.006-1.518-0.301-1.801-0.617c-0.285-0.314-0.42-0.861-0.403-1.633l0.01-1.076h-5.393
			v9.113c2.106,0,3.582,0,3.582,0l2.549-3.402c0,0,0.501-0.764,1.261-0.764c0.611,0,0.941,0.24,1.814,0.996
			c1.322,1.145,3.007,2.654,3.055,3.357c0.066,0.984-1.016,1.229-1.016,1.229H379.647z M336.045,75.939
			c1.441,1.814,2.559,3.254,3.514,4.258c0.906,0.939,1.569,1.053,1.813,1.102c0.178,0.033,0.324,0.049,0.454,0.049
			c0.059,0,0.056,0.041,0.088,0.059c0.033-0.016,0.03-0.059,0.089-0.059c0.146,0,0.373-0.016,0.502-0.033
			c0.745-0.096,1.052-0.646,1.376-1.457l4.064-10.166c0.193-0.471,0.291-0.648,0.453-0.648c0.146,0,0.242,0.146,0.404,0.518
			c0.389,0.893,2.979,7.496,4.016,9.957c0.614,1.457,1.085,1.686,1.425,1.766c0.242,0.049,0.485,0.064,0.679,0.064
			c0.13,0,0.211,0.016,0.211,0.129c0,0.129-0.146,0.162-0.745,0.162c-0.583,0-1.764,0-3.06-0.033
			c-0.291-0.016-0.485-0.016-0.485-0.129c0-0.096,0.065-0.129,0.227-0.145c0.113-0.033,0.227-0.18,0.146-0.373l-1.295-3.434
			c-0.032-0.08-0.081-0.111-0.162-0.111h-3.609c-0.081,0-0.114,0.031-0.146,0.129l-0.874,2.314
			c-0.162,0.404-0.243,0.793-0.243,0.988c0,0.291,0.146,0.502,0.648,0.502h0.242c0.194,0,0.243,0.033,0.243,0.129
			c0,0.129-0.098,0.162-0.275,0.162c-0.518,0-1.214-0.049-1.716-0.049c-0.179,0-1.069,0.049-1.91,0.049
			c-0.139,0-0.158-0.059-0.203-0.105c-0.048,0.047-0.074,0.105-0.202,0.105h-1.538c-0.905,0-1.311-0.08-1.731-0.307
			c-0.696-0.373-1.313-1.135-2.219-2.381c-0.647-0.891-1.392-1.99-1.603-2.234c-0.081-0.096-0.178-0.113-0.291-0.113l-1.409-0.033
			c-0.081,0-0.129,0.033-0.129,0.131v0.227c0,1.506,0,2.785,0.081,3.465c0.048,0.469,0.146,0.826,0.631,0.891
			c0.243,0.031,0.6,0.064,0.793,0.064c0.13,0,0.195,0.049,0.195,0.129c0,0.113-0.114,0.162-0.324,0.162
			c-0.938,0-2.137-0.049-2.38-0.049c-0.308,0-1.328,0.049-1.975,0.049c-0.211,0-0.324-0.049-0.324-0.162
			c0-0.08,0.064-0.129,0.259-0.129c0.243,0,0.437-0.033,0.583-0.064c0.324-0.064,0.405-0.422,0.469-0.891
			c0.081-0.68,0.081-1.959,0.081-3.449v-2.85c0-2.459,0-2.914-0.032-3.432c-0.031-0.551-0.161-0.809-0.695-0.924
			c-0.13-0.031-0.405-0.047-0.632-0.047c-0.179,0-0.275-0.033-0.275-0.146s0.113-0.146,0.356-0.146c0.857,0,1.878,0.049,2.218,0.049
			c0.551,0,1.78-0.049,2.283-0.049c1.02,0,2.104,0.098,2.979,0.697c0.453,0.307,1.101,1.133,1.101,2.217
			C338.182,73.512,337.68,74.611,336.045,75.939 M337.305,13.465c0.025,0.459-0.265,0.684-0.783,1.355
			c-0.749,0.973-0.699,2.656-0.699,2.656v13.736c0,2.541,0.146,4.883-0.905,6.145c-1.442,1.732-3.045,2.691-4.66,2.691
			c-1.385,0-1.753-1.049-1.645-1.641c0.23-1.271-1.021-2.857-1.646-3.336c-0.924-0.707-1.921-0.867-2.367-0.912l0.051-1.229
			c3.471,1.012,4.481,0.23,4.481-1.131c0-1.359,0-1.979,0-1.979l0.004-13.902c-1.747,0.645-3.437,1.42-4.734,2.08l0.017,19.604v0.9
			l0.213,3.045c-0.125,0.889-0.399,1.477-0.828,1.762c-0.426,0.285-1.155,0.516-2.188,0.693c-1.034,0.178-1.834,0.215-2.403,0.107
			c-0.677-0.09-1.147-0.285-1.415-0.588c-0.25-0.303-0.419-0.721-0.508-1.254l0.257-4.666l0.021-15.777l-3.781,2.176l-0.009,20.617
			c0,2.844,1.785,3.447,4.575,3.51c2.789,0.063,8.087-0.326,9.489-0.648c2.093-0.48,4.614-1.045,8.459-9.076l0.762,0.529
			c0,0-2.133,5.717-0.33,8.578c1.927,3.455-1.154,6.631-5.03,7.174s-13.131,1.059-19.116,0.303c-6.37-0.803-6.198-8.734-6.198-8.734
			s0-1.459,0.001-3.703c-0.593,0.414-11.104,7.793-13.978,11.713c-1.248,1.703-1.768,1.775-2.258,1.039
			c-0.32-0.48-2.603-6.158-2.722-6.625c-0.139-0.547,0.45-0.77,0.45-0.77s1.854-0.68,3.305-1.221c1.18-0.314,1.358-1.5,1.405-2.018
			c0-3.758,0.002-16.158,0.003-25.074c-2.406,0.08-4.389,0.162-4.389,0.162l-1.305-1.836c0,0,1.656,0.086,3.316,0.115
			c0.001,0.002,1.037,0.002,2.378,0.002c0-4.564,0.001-7.926,0.001-8.113c0-0.857-0.294-6.061-0.294-6.061
			c0-0.193,0.027-0.328,0.08-0.4c0.054-0.088,0.204-0.15,0.454-0.188c0.517-0.053,1.921,0.188,4.218,0.723
			c2.314,0.516,3.516,1.033,3.604,1.549c0.071,0.461-0.401,1.113-1.415,1.947v10.547c0.09,0,0.229,0,0.229,0l1.569-2.576
			c0,0,0.256-0.41,0.569-0.443c0.277-0.029,0.756,0.42,1.273,0.947c0.846,0.861,1.621,1.658,2.065,2.209
			c0.47,0.584-0.368,1.279-0.368,1.279h-5.339v24.617l6.609-1.961l0.535,0.299c0-3.338,0.001-8.43,0.002-13.471
			c-0.999,0.73-1.778,1.309-1.778,1.309l-2.666-1.145c0,0,1.488-0.766,2.954-1.58c0,0,0.582-0.336,1.49-0.861
			c0.001-7.246,0.003-13.82,0.003-14.096c0-0.855-0.293-6.059-0.293-6.059c0-0.195,0.025-0.33,0.079-0.4
			c0.054-0.088,0.204-0.15,0.453-0.188c0.517-0.053,1.922,0.188,4.218,0.721c2.314,0.518,4.31,1.139,4.398,1.654
			c0.071,0.463-0.443,1.008-1.458,1.844l-0.005,12.25c1.239-0.715,2.509-1.451,3.783-2.186l0.015-11.943l-0.294-6.086
			c0-0.197,0.027-0.33,0.08-0.402c0.054-0.088,0.205-0.15,0.455-0.186c0.604-0.072,2.063,0.168,4.378,0.721
			c2.331,0.533,3.541,1.049,3.631,1.547c0.071,0.43-0.41,1.078-1.442,1.949l0.01,10.453c2.158-1.248,3.71-2.145,4.137-2.391
			l1.308-2.768c0,0,0.438-0.814,0.825-1.031c0.742-0.41,2.166,0.316,3.455,0.998C335.652,11.877,337.279,13.006,337.305,13.465
			 M286.312,75.729c0,0.098-0.098,0.131-0.21,0.131c-0.131,0-0.243,0.016-0.438,0.049c-0.437,0.08-0.599,0.355-0.616,0.922
			c-0.016,0.486-0.016,1.135-0.016,1.943v1.781c0,0.438-0.017,0.469-0.21,0.582c-1.053,0.551-2.639,0.729-3.902,0.729
			c-3.966,0-7.479-1.879-7.479-6.346c0-2.59,1.344-4.404,2.817-5.295c1.555-0.938,2.995-1.051,4.354-1.051
			c1.118,0,2.542,0.193,2.866,0.258c0.34,0.064,0.906,0.162,1.278,0.178c0.194,0.018,0.228,0.082,0.228,0.195
			c0,0.178-0.114,0.631-0.114,2.654c0,0.26-0.048,0.34-0.178,0.34c-0.113,0-0.146-0.08-0.162-0.209
			c-0.048-0.373-0.129-0.893-0.55-1.344c-0.486-0.52-1.781-1.264-3.61-1.264c-0.891,0-2.073,0.064-3.206,1.004
			c-0.906,0.762-1.489,1.975-1.489,3.967c0,3.48,2.219,6.088,5.634,6.088c0.422,0,0.987,0,1.377-0.18
			c0.242-0.113,0.307-0.322,0.307-0.6v-1.52c0-0.811,0-1.426-0.016-1.912c-0.017-0.551-0.162-0.809-0.696-0.922
			c-0.129-0.033-0.405-0.049-0.631-0.049c-0.146,0-0.243-0.033-0.243-0.131c0-0.129,0.113-0.16,0.34-0.16
			c0.842,0,1.862,0.049,2.347,0.049c0.502,0,1.36-0.049,1.895-0.049C286.198,75.568,286.312,75.6,286.312,75.729 M286.008,44.246
			c-3.794,1.561-5.747,4.156-6.127,4.949c-0.379,0.795-1.319,0.543-1.319,0.543c-10.126-4.203-12.391-15.02-12.892-18.902
			c-1.018,0.316-1.875,0.57-2.587,0.775c1.416,2.9,2.334,6.111,2.347,9.596c0.016,4.195-0.854,7.637-3.004,10.717
			c-2.149,3.08-5.941,4.51-8.677,4.744c-1.338-3.162-2.933-6.031-7.44-6.816c-0.007,0-0.019,0-0.024,0v-0.76
			c0,0,2.083-0.025,5.584,0.367c0,0,0.588,0.045,1.155-0.156c0.787-0.527,1.516-1.137,2.112-1.906
			c0.249-0.398,0.541-0.768,0.76-1.188c0.1-0.18,0.185-0.371,0.275-0.559c0.47-0.994,0.852-2.039,1.129-3.131
			c0.049-0.207,0.096-0.424,0.142-0.645c0.107-0.5,0.117-1.035,0.18-1.553c-12.405,9.178-25.74,10.695-25.74,10.695
			s13.66-6.846,25.007-18.303c-0.091-0.289-0.266-0.527-0.373-0.805c-14.888,10.436-24.874,10.453-24.874,10.453
			s14.468-6.98,21.739-15.615c-0.187-0.217-0.329-0.471-0.525-0.68c-8.566,3.586-17.826,4.51-17.826,4.51s10.675-5.705,13.386-7.58
			c2.03-1.402,5.255-3.764,6.748-4.861h-2.23c-3.806,0-10.355,0.303-10.355,0.303l-1.335-1.861c0,0,1.694,0.086,3.391,0.117
			c0.005,0,19.855,0.006,19.855,0.006l3.394-4.131c0,0,0.553-0.732,1.032-0.732c0.625,0,1.207,0.578,2.184,1.551
			c0.604,0.604,1.167,1.168,1.684,1.699c0.153-0.219,0.665-0.965,1.753-2.869c0.737-1.289,0.178-1.783-0.172-1.957h-30.99
			c0.189,2.168-0.422,4.156-1.662,5.654c-1.938,2.34-4.131,2.967-5.606,2.674c-1.422-0.281-2.421-2.188-2.647-3.939
			c-0.401-3.094,2.049-4,4.274-5.873c2.031-1.713,1.901-5.752,1.901-5.752c1.932,1.914,2.893,3.893,3.372,5.799
			c4.056,0,8.112,0,11.942,0.002c0.068-0.719-0.173-2.16-0.479-3.191c-0.324-1.098-2.392-4.631-4.014-5.635
			c0,0,1.004,0.072,1.672,0.102c0.75,0.033,3.595-0.012,4.824,0.143c4.302,0.535,5.753,3.363,5.003,5.822
			c-0.365,1.197-1.107,2.023-1.813,2.76c5.169,0,9.56,0,12.527,0c0.304-0.236,1.747-1.361,3.887-3.105
			c1.653-1.346,3.044,0.01,7.724,6.08c0.422,0.547,0.406,1.076-0.36,1.297c-0.671,0.191-2.39,0.322-3.438,0.439
			c-2.225,0.248-3.636,0.463-7.016,2.262c0.607,0.654,1.021,1.164,1.057,1.395c0.153,0.988-1.286,0.943-1.286,0.943h-12.321
			c0.98,0.77,2.894,2.324,3.361,3.068c0.633,1.008-1.087,0.9-1.087,0.9c-2.323,0.23-5.894,1.82-5.894,1.82
			c-0.122,0.07-0.256,0.121-0.379,0.191c2.098,1.619,3.975,3.521,5.36,5.828c2.459-1.875,7.808-6.123,10.67-9.686
			c0,0,0.895-1.271,1.853-0.256c2.805,2.971,3.845,3.723,4.818,5.127c0.645,0.93-1.596,0.746-2.226,1.094
			c-2.613,1.449-6.252,2.811-9.408,3.863c4.609,7.816,9.275,11.023,15.303,12.752C286.761,43.838,286.008,44.246,286.008,44.246
			 M228.526,69.627c0.193,0.209,2.654,2.848,5.019,5.195c1.102,1.102,3.286,3.434,3.562,3.691h0.081l-0.161-7.268
			c-0.018-0.988-0.163-1.295-0.552-1.457c-0.242-0.098-0.631-0.098-0.857-0.098c-0.194,0-0.259-0.049-0.259-0.146
			c0-0.129,0.178-0.146,0.421-0.146c0.842,0,1.619,0.049,1.959,0.049c0.178,0,0.793-0.049,1.586-0.049
			c0.211,0,0.373,0.018,0.373,0.146c0,0.098-0.098,0.146-0.292,0.146c-0.162,0-0.291,0-0.485,0.047
			c-0.454,0.131-0.583,0.471-0.599,1.377l-0.179,10.217c0,0.355-0.064,0.502-0.211,0.502c-0.178,0-0.371-0.18-0.55-0.357
			c-1.02-0.971-3.093-3.092-4.775-4.76c-1.766-1.748-3.563-3.771-3.854-4.08h-0.049l0.178,6.801
			c0.032,1.264,0.243,1.684,0.567,1.797c0.274,0.098,0.582,0.113,0.842,0.113c0.178,0,0.275,0.033,0.275,0.129
			c0,0.129-0.146,0.162-0.373,0.162c-1.053,0-1.7-0.049-2.007-0.049c-0.146,0-0.907,0.049-1.749,0.049
			c-0.21,0-0.356-0.016-0.356-0.162c0-0.096,0.097-0.129,0.259-0.129c0.211,0,0.502-0.016,0.729-0.082
			c0.421-0.129,0.485-0.598,0.502-2.006l0.145-9.584c0-0.324,0.049-0.551,0.211-0.551C228.105,69.125,228.251,69.336,228.526,69.627
			 M227.811,7.326c-0.02,0.41-0.541,1.111-1.568,2.1c0,0,0,32.582,0,34.779c0,3.766,0.361,8.045,0.325,9.141
			s0.148,1.514-1.631,2.295c-1.789,0.787-2.951,0.873-4.298,0.869c-1.182-0.006-1.793-0.355-2.129-0.729s-0.495-1.018-0.476-1.932
			l0.021-2.354H186.93v1.865c0,0.865-0.123,1.545-1.098,2.236c-0.98,0.697-2.164,1.035-3.954,1.203c-1.838,0.172-2.54,0-2.823-0.422
			s-0.33-0.908-0.33-1.443c0,0,0.356-5.42,0.356-6.447V6.957c0-0.906-0.293-3.713-0.293-3.996c0-0.572,0.319-0.865,0.646-0.865
			c0.386-0.029,0.733,0.178,1.623,0.66l5.246,2.848c13.073,0.002,26.223,0.002,31.23,0.002c0.636-0.891,1.198-1.668,1.622-2.227
			c0.466-0.615,0.857-0.961,1.176-1.035c0.336-0.076,0.821,0.027,1.457,0.307c1.755,0.84,3.192,1.746,4.314,2.717
			C227.241,6.338,227.811,6.99,227.811,7.326 M178.073,81.314c0.743-0.096,1.052-0.646,1.376-1.457l4.063-10.166
			c0.195-0.471,0.293-0.648,0.455-0.648c0.146,0,0.242,0.146,0.404,0.518c0.389,0.893,2.979,7.496,4.014,9.957
			c0.616,1.457,1.086,1.686,1.426,1.766c0.242,0.049,0.485,0.064,0.68,0.064c0.13,0,0.211,0.016,0.211,0.129
			c0,0.129-0.146,0.162-0.745,0.162c-0.583,0-1.765,0-3.06-0.033c-0.291-0.016-0.486-0.016-0.486-0.129
			c0-0.096,0.064-0.129,0.227-0.145c0.113-0.033,0.228-0.18,0.146-0.373l-1.295-3.434c-0.033-0.08-0.081-0.111-0.162-0.111h-3.611
			c-0.08,0-0.113,0.031-0.145,0.129l-0.875,2.314c-0.161,0.404-0.242,0.793-0.242,0.988c0,0.291,0.145,0.502,0.646,0.502h0.244
			c0.193,0,0.242,0.033,0.242,0.129c0,0.129-0.097,0.162-0.275,0.162c-0.518,0-1.215-0.049-1.715-0.049
			c-0.18,0-1.07,0.049-1.912,0.049c-0.209,0-0.308-0.033-0.308-0.162c0-0.096,0.065-0.129,0.195-0.129
			C177.717,81.348,177.943,81.332,178.073,81.314 M176.725,69.545c0,0.098-0.098,0.146-0.293,0.146c-0.162,0-0.291,0-0.484,0.047
			c-0.454,0.131-0.583,0.471-0.6,1.377l-0.179,10.217c0,0.355-0.063,0.502-0.21,0.502c-0.178,0-0.372-0.18-0.55-0.357
			c-1.021-0.971-3.093-3.092-4.776-4.76c-1.765-1.748-3.562-3.771-3.853-4.08h-0.05l0.179,6.801
			c0.032,1.264,0.243,1.684,0.567,1.797c0.274,0.098,0.582,0.113,0.842,0.113c0.178,0,0.275,0.033,0.275,0.129
			c0,0.129-0.146,0.162-0.373,0.162c-1.053,0-1.699-0.049-2.008-0.049c-0.146,0-0.906,0.049-1.749,0.049
			c-0.21,0-0.356-0.016-0.356-0.162c0-0.096,0.098-0.129,0.26-0.129c0.211,0,0.502-0.016,0.729-0.082
			c0.422-0.129,0.486-0.598,0.502-2.006l0.146-9.584c0-0.324,0.049-0.551,0.211-0.551c0.178,0,0.324,0.211,0.599,0.502
			c0.194,0.209,2.655,2.848,5.02,5.195c1.101,1.102,3.285,3.434,3.563,3.691h0.079l-0.161-7.268
			c-0.017-0.988-0.162-1.295-0.551-1.457c-0.242-0.098-0.631-0.098-0.857-0.098c-0.194,0-0.26-0.049-0.26-0.146
			c0-0.129,0.178-0.146,0.422-0.146c0.842,0,1.619,0.049,1.959,0.049c0.178,0,0.793-0.049,1.586-0.049
			C176.563,69.398,176.725,69.416,176.725,69.545 M172.176,7.326c-0.019,0.41-0.541,1.111-1.568,2.1c0,0,0,32.582,0,34.779
			c0,3.766,0.361,8.045,0.326,9.141c-0.037,1.096,0.148,1.514-1.631,2.295c-1.791,0.787-2.951,0.873-4.298,0.869
			c-1.182-0.006-1.793-0.355-2.129-0.729s-0.496-1.018-0.476-1.932l0.021-2.354h-31.126v1.865c0,0.865-0.124,1.545-1.098,2.236
			c-0.981,0.697-2.164,1.035-3.954,1.203c-1.838,0.172-2.54,0-2.824-0.422c-0.283-0.422-0.328-0.908-0.328-1.443
			c0,0,0.355-5.42,0.355-6.447V6.957c0-0.906-0.294-3.713-0.294-3.996c0-0.572,0.319-0.865,0.647-0.865
			c0.385-0.029,0.731,0.178,1.622,0.66l5.245,2.848c13.074,0.002,26.223,0.002,31.23,0.002c0.637-0.891,1.199-1.668,1.621-2.227
			c0.468-0.615,0.859-0.961,1.178-1.035c0.336-0.076,0.82,0.027,1.457,0.307c1.755,0.84,3.191,1.746,4.313,2.717
			C171.605,6.338,172.176,6.99,172.176,7.326 M120.952,69.545c0,0.098-0.097,0.146-0.292,0.146c-0.162,0-0.291,0-0.486,0.047
			c-0.453,0.131-0.582,0.471-0.599,1.377l-0.179,10.217c0,0.355-0.063,0.502-0.209,0.502c-0.178,0-0.373-0.18-0.551-0.357
			c-1.02-0.971-3.093-3.092-4.775-4.76c-1.765-1.748-3.562-3.771-3.853-4.08h-0.049l0.178,6.801
			c0.032,1.264,0.243,1.684,0.567,1.797c0.275,0.098,0.582,0.113,0.841,0.113c0.178,0,0.276,0.033,0.276,0.129
			c0,0.129-0.146,0.162-0.373,0.162c-1.052,0-1.7-0.049-2.007-0.049c-0.146,0-0.907,0.049-1.749,0.049
			c-0.21,0-0.356-0.016-0.356-0.162c0-0.096,0.097-0.129,0.259-0.129c0.211,0,0.502-0.016,0.729-0.082
			c0.421-0.129,0.485-0.598,0.502-2.006l0.145-9.584c0-0.324,0.049-0.551,0.211-0.551c0.178,0,0.323,0.211,0.599,0.502
			c0.194,0.209,2.655,2.848,5.018,5.195c1.101,1.102,3.287,3.434,3.562,3.691h0.08l-0.161-7.268
			c-0.017-0.988-0.162-1.295-0.55-1.457c-0.243-0.098-0.633-0.098-0.858-0.098c-0.194,0-0.259-0.049-0.259-0.146
			c0-0.129,0.178-0.146,0.421-0.146c0.842,0,1.619,0.049,1.959,0.049c0.178,0,0.793-0.049,1.586-0.049
			C120.79,69.398,120.952,69.416,120.952,69.545 M117.464,15.711c-0.019,0.375-0.329,0.863-0.934,1.467l-1.308,1.336v14
			c0,1.674,0.259,5.273,0.407,6.957c0.063,0.709-0.644,1.539-2.684,2.107c-1.945,0.541-3.008,0.521-3.613,0.432
			c-0.891-0.107-1.461-0.348-1.693-0.705c-0.213-0.373-0.32-1.127-0.32-2.266v-1.326H96.907v9.361l0.347,7.656
			c-0.196,0.516-0.48,0.979-0.854,1.389c-0.357,0.406-1.051,0.781-2.083,1.119c-1.014,0.355-2.136,0.48-3.363,0.373
			c-1.122-0.09-1.816-0.311-2.083-0.666c-0.249-0.34-0.409-0.756-0.48-1.254l0.48-8.965l-0.024-9.014h-0.586l-10.326-0.002v1.42
			c0,0.865-0.124,1.545-1.098,2.236c-0.981,0.697-2.165,1.033-3.954,1.203c-1.839,0.174-2.54,0-2.824-0.422
			c-0.284-0.424-0.33-0.908-0.33-1.441c0,0,0.357-5.422,0.357-6.449V14.574c0-0.906-0.294-3.715-0.294-3.996
			c0-0.572,0.32-0.865,0.647-0.865c0.385-0.029,0.732,0.178,1.622,0.66l6.953,3.775c3.314,0,6.644,0,9.804,0.002V9.832l-0.427-6.35
			c-0.036-0.711,0.044-1.164,0.24-1.361c0.213-0.213,0.667-0.293,1.361-0.238c0.356,0.035,1.833,0.354,4.432,0.959
			c2.598,0.605,4.013,1.113,4.245,1.52c0.231,0.41,0.293,0.793,0.187,1.148c-0.089,0.338-0.347,0.666-0.774,0.986L96.88,7.379
			l0.006,6.771c4.171,0,7.606,0,9.719,0c0.724-0.99,1.371-1.879,1.916-2.627c0.569-0.801,1.049-1.227,1.441-1.281
			c0.391-0.053,1.05,0.232,1.976,0.854l2.242,1.441C116.387,13.977,117.482,15.037,117.464,15.711 M56.413,82.314h-6.988H3.95H0
			v-3.951V6.98V3.029h3.95h45.475h6.988V6.98v42.318h-6.988V6.98H3.95v71.383h45.475V63.912h6.988v14.451V82.314z M69.971,75.326
			c0-1.102,0.34-3.014,1.894-4.438c1.166-1.068,2.704-1.715,5.116-1.715c1.004,0,1.603,0.063,2.348,0.162
			c0.615,0.08,1.133,0.225,1.619,0.273c0.178,0.018,0.243,0.098,0.243,0.195c0,0.129-0.049,0.324-0.082,0.889
			c-0.032,0.535-0.016,1.426-0.048,1.75c-0.016,0.242-0.049,0.371-0.194,0.371c-0.13,0-0.162-0.129-0.162-0.355
			c-0.016-0.502-0.227-1.068-0.631-1.488c-0.535-0.568-1.798-1.004-3.287-1.004c-1.409,0-2.331,0.355-3.044,1.004
			c-1.182,1.084-1.489,2.621-1.489,4.193c0,3.852,2.93,5.762,5.099,5.762c1.441,0,2.316-0.162,2.963-0.906
			c0.276-0.307,0.486-0.775,0.551-1.068c0.048-0.26,0.081-0.324,0.21-0.324c0.114,0,0.146,0.115,0.146,0.244
			c0,0.193-0.194,1.602-0.356,2.152c-0.081,0.275-0.146,0.357-0.421,0.471c-0.648,0.258-1.878,0.371-2.914,0.371
			c-2.218,0-4.08-0.484-5.553-1.764C70.392,78.709,69.971,76.895,69.971,75.326 M85.184,76.943v-2.85c0-2.459,0-2.914-0.033-3.432
			c-0.032-0.551-0.162-0.809-0.696-0.924c-0.129-0.031-0.405-0.047-0.631-0.047c-0.178,0-0.275-0.033-0.275-0.146
			s0.113-0.146,0.34-0.146c0.874,0,1.894,0.049,2.331,0.049c0.388,0,1.408-0.049,2.04-0.049c0.226,0,0.34,0.033,0.34,0.146
			s-0.097,0.146-0.292,0.146c-0.129,0-0.275,0.016-0.469,0.047c-0.437,0.082-0.567,0.357-0.599,0.924
			c-0.033,0.518-0.033,0.973-0.033,3.432v0.34c0,0.082,0.049,0.115,0.098,0.115h6.184c0.049,0,0.097-0.033,0.097-0.115v-0.34
			c0-2.459,0-2.914-0.032-3.432c-0.033-0.551-0.162-0.809-0.696-0.924c-0.13-0.031-0.405-0.047-0.632-0.047
			c-0.178,0-0.275-0.033-0.275-0.146s0.113-0.146,0.34-0.146c0.874,0,1.894,0.049,2.331,0.049c0.389,0,1.409-0.049,2.04-0.049
			c0.227,0,0.34,0.033,0.34,0.146s-0.097,0.146-0.291,0.146c-0.13,0-0.275,0.016-0.47,0.047c-0.437,0.082-0.566,0.357-0.599,0.924
			c-0.032,0.518-0.032,0.973-0.032,3.432v2.85c0,1.49,0,2.77,0.081,3.465c0.048,0.453,0.146,0.811,0.631,0.875
			c0.227,0.031,0.583,0.064,0.826,0.064c0.178,0,0.259,0.049,0.259,0.129c0,0.113-0.13,0.162-0.324,0.162
			c-1.052,0-2.072-0.049-2.526-0.049c-0.372,0-1.392,0.049-2.023,0.049c-0.227,0-0.34-0.049-0.34-0.162
			c0-0.08,0.065-0.129,0.259-0.129c0.243,0,0.437-0.033,0.583-0.064c0.323-0.064,0.404-0.422,0.469-0.891
			c0.081-0.68,0.081-1.959,0.081-3.449V75.52c0-0.064-0.048-0.098-0.097-0.098h-6.184c-0.049,0-0.098,0.016-0.098,0.098v1.424
			c0,1.49,0,2.77,0.081,3.465c0.049,0.453,0.146,0.811,0.632,0.875c0.226,0.031,0.583,0.064,0.826,0.064
			c0.177,0,0.258,0.049,0.258,0.129c0,0.113-0.129,0.162-0.323,0.162c-1.053,0-2.073-0.049-2.526-0.049
			c-0.372,0-1.392,0.049-2.04,0.049c-0.21,0-0.323-0.049-0.323-0.162c0-0.08,0.064-0.129,0.258-0.129
			c0.243,0,0.438-0.033,0.583-0.064c0.324-0.064,0.405-0.422,0.47-0.891C85.184,79.713,85.184,78.434,85.184,76.943 M101.179,76.943
			v-2.85c0-2.459,0-2.914-0.033-3.432c-0.032-0.551-0.194-0.826-0.55-0.906c-0.178-0.049-0.389-0.064-0.583-0.064
			c-0.162,0-0.259-0.033-0.259-0.162c0-0.098,0.13-0.131,0.389-0.131c0.615,0,1.635,0.049,2.104,0.049
			c0.405,0,1.36-0.049,1.976-0.049c0.21,0,0.339,0.033,0.339,0.131c0,0.129-0.097,0.162-0.259,0.162
			c-0.161,0-0.291,0.016-0.485,0.047c-0.437,0.082-0.567,0.357-0.599,0.924c-0.033,0.518-0.033,0.973-0.033,3.432v2.85
			c0,1.57,0,2.85,0.065,3.545c0.049,0.438,0.162,0.73,0.648,0.795c0.226,0.031,0.583,0.064,0.825,0.064
			c0.178,0,0.259,0.049,0.259,0.129c0,0.113-0.129,0.162-0.307,0.162c-1.069,0-2.089-0.049-2.526-0.049
			c-0.372,0-1.392,0.049-2.04,0.049c-0.21,0-0.324-0.049-0.324-0.162c0-0.08,0.065-0.129,0.259-0.129
			c0.243,0,0.438-0.033,0.583-0.064c0.324-0.064,0.421-0.342,0.47-0.811C101.179,79.793,101.179,78.514,101.179,76.943
			 M124.821,76.943v-2.85c0-2.459,0-2.914-0.033-3.432c-0.032-0.551-0.162-0.809-0.696-0.924c-0.129-0.031-0.404-0.047-0.631-0.047
			c-0.178,0-0.275-0.033-0.275-0.146s0.113-0.146,0.356-0.146c0.437,0,0.906,0.018,1.312,0.018c0.42,0.016,0.793,0.031,1.02,0.031
			c0.518,0,3.74,0,4.047-0.016c0.309-0.033,0.567-0.064,0.697-0.096c0.081-0.018,0.178-0.066,0.259-0.066s0.097,0.066,0.097,0.146
			c0,0.113-0.08,0.307-0.129,1.053c-0.017,0.162-0.049,0.873-0.082,1.068c-0.016,0.08-0.048,0.178-0.162,0.178
			c-0.112,0-0.145-0.08-0.145-0.227c0-0.113-0.016-0.389-0.098-0.584c-0.113-0.291-0.275-0.484-1.084-0.582
			c-0.275-0.031-1.976-0.064-2.299-0.064c-0.082,0-0.113,0.049-0.113,0.162v4.096c0,0.113,0.016,0.178,0.113,0.178
			c0.355,0,2.217,0,2.59-0.031c0.389-0.033,0.632-0.082,0.777-0.244c0.113-0.129,0.178-0.209,0.258-0.209
			c0.065,0,0.114,0.031,0.114,0.129c0,0.096-0.065,0.355-0.13,1.182c-0.016,0.324-0.064,0.971-0.064,1.084
			c0,0.129,0,0.309-0.146,0.309c-0.114,0-0.146-0.066-0.146-0.146c-0.017-0.162-0.017-0.373-0.065-0.582
			c-0.081-0.324-0.308-0.566-0.906-0.633c-0.308-0.031-1.911-0.047-2.299-0.047c-0.081,0-0.097,0.064-0.097,0.162v1.277
			c0,0.551-0.016,2.041,0,2.51c0.031,1.117,0.291,1.359,1.941,1.359c0.422,0,1.102,0,1.522-0.193
			c0.421-0.195,0.614-0.535,0.729-1.197c0.031-0.178,0.064-0.244,0.178-0.244c0.129,0,0.129,0.129,0.129,0.291
			c0,0.373-0.129,1.473-0.211,1.797c-0.112,0.422-0.258,0.422-0.873,0.422c-1.215,0-2.105-0.033-2.801-0.049
			c-0.696-0.033-1.198-0.049-1.685-0.049c-0.178,0-0.534,0-0.923,0.016c-0.372,0-0.793,0.033-1.117,0.033
			c-0.21,0-0.324-0.049-0.324-0.162c0-0.08,0.065-0.129,0.26-0.129c0.242,0,0.438-0.033,0.582-0.064
			c0.324-0.064,0.406-0.422,0.471-0.891C124.821,79.713,124.821,78.434,124.821,76.943 M134.352,80.895
			c0-0.891,0.064-1.861,0.08-2.121c0.017-0.244,0.065-0.422,0.194-0.422c0.146,0,0.162,0.146,0.162,0.275
			c0,0.211,0.065,0.551,0.146,0.826c0.356,1.197,1.312,1.635,2.315,1.635c1.457,0,2.169-0.986,2.169-1.844
			c0-0.795-0.242-1.539-1.586-2.592l-0.745-0.584c-1.78-1.391-2.396-2.523-2.396-3.836c0-1.779,1.488-3.059,3.74-3.059
			c1.051,0,1.731,0.162,2.152,0.273c0.145,0.033,0.227,0.082,0.227,0.195c0,0.211-0.064,0.68-0.064,1.943
			c0,0.355-0.049,0.484-0.178,0.484c-0.114,0-0.162-0.098-0.162-0.291c0-0.145-0.081-0.646-0.421-1.068
			c-0.243-0.309-0.714-0.793-1.765-0.793c-1.199,0-1.927,0.695-1.927,1.668c0,0.744,0.372,1.311,1.716,2.33l0.453,0.34
			c1.959,1.473,2.655,2.59,2.655,4.129c0,0.939-0.356,2.057-1.522,2.818c-0.809,0.518-1.716,0.662-2.574,0.662
			c-0.938,0-1.666-0.113-2.362-0.422C134.4,81.332,134.352,81.25,134.352,80.895 M145.23,76.943v-2.85c0-2.459,0-2.914-0.032-3.432
			c-0.033-0.551-0.162-0.809-0.697-0.924c-0.129-0.031-0.403-0.047-0.631-0.047c-0.179,0-0.274-0.033-0.274-0.146
			s0.112-0.146,0.355-0.146c0.438,0,0.906,0.018,1.311,0.018c0.422,0.016,0.795,0.031,1.021,0.031c0.519,0,3.739,0,4.048-0.016
			c0.307-0.033,0.566-0.064,0.695-0.096c0.082-0.018,0.179-0.066,0.26-0.066s0.097,0.066,0.097,0.146
			c0,0.113-0.081,0.307-0.129,1.053c-0.017,0.162-0.049,0.873-0.081,1.068c-0.017,0.08-0.049,0.178-0.162,0.178
			s-0.146-0.08-0.146-0.227c0-0.113-0.017-0.389-0.097-0.584c-0.113-0.291-0.275-0.484-1.086-0.582
			c-0.274-0.031-1.975-0.064-2.299-0.064c-0.08,0-0.113,0.049-0.113,0.162v4.096c0,0.113,0.017,0.178,0.113,0.178
			c0.356,0,2.219,0,2.592-0.031c0.388-0.033,0.631-0.082,0.776-0.244c0.113-0.129,0.179-0.209,0.259-0.209
			c0.064,0,0.113,0.031,0.113,0.129c0,0.096-0.064,0.355-0.13,1.182c-0.017,0.324-0.063,0.971-0.063,1.084
			c0,0.129,0,0.309-0.146,0.309c-0.113,0-0.146-0.066-0.146-0.146c-0.016-0.162-0.016-0.373-0.063-0.582
			c-0.081-0.324-0.308-0.566-0.907-0.633c-0.309-0.031-1.91-0.047-2.299-0.047c-0.081,0-0.098,0.064-0.098,0.162v1.277
			c0,0.551-0.016,2.041,0,2.51c0.033,1.117,0.291,1.359,1.943,1.359c0.422,0,1.102,0,1.521-0.193
			c0.421-0.195,0.615-0.535,0.729-1.197c0.033-0.178,0.065-0.244,0.178-0.244c0.131,0,0.131,0.129,0.131,0.291
			c0,0.373-0.131,1.473-0.211,1.797c-0.113,0.422-0.26,0.422-0.875,0.422c-1.213,0-2.104-0.033-2.801-0.049
			c-0.695-0.033-1.197-0.049-1.683-0.049c-0.179,0-0.535,0-0.923,0.016c-0.373,0-0.794,0.033-1.118,0.033
			c-0.21,0-0.323-0.049-0.323-0.162c0-0.08,0.064-0.129,0.26-0.129c0.242,0,0.437-0.033,0.582-0.064
			c0.323-0.064,0.404-0.422,0.469-0.891C145.23,79.713,145.23,78.434,145.23,76.943 M194.236,76.943v-6.637l-2.413,0.064
			c-0.938,0.031-1.327,0.113-1.57,0.469c-0.161,0.244-0.243,0.438-0.274,0.568c-0.033,0.129-0.082,0.193-0.18,0.193
			c-0.113,0-0.145-0.082-0.145-0.26c0-0.258,0.307-1.732,0.34-1.861c0.048-0.211,0.098-0.307,0.193-0.307
			c0.131,0,0.291,0.162,0.697,0.193c0.469,0.049,1.084,0.08,1.618,0.08h6.411c0.518,0,0.875-0.049,1.117-0.08
			c0.243-0.049,0.373-0.08,0.437-0.08c0.114,0,0.13,0.096,0.13,0.34c0,0.34-0.049,1.457-0.049,1.877
			c-0.016,0.162-0.048,0.26-0.145,0.26c-0.13,0-0.162-0.082-0.178-0.324l-0.018-0.178c-0.032-0.422-0.469-0.875-1.91-0.908
			l-2.04-0.047v6.637c0,1.49,0,2.77,0.081,3.465c0.049,0.453,0.146,0.811,0.631,0.875c0.228,0.031,0.583,0.064,0.826,0.064
			c0.178,0,0.259,0.049,0.259,0.129c0,0.113-0.129,0.162-0.307,0.162c-1.069,0-2.089-0.049-2.542-0.049
			c-0.373,0-1.393,0.049-2.04,0.049c-0.211,0-0.323-0.049-0.323-0.162c0-0.08,0.064-0.129,0.258-0.129
			c0.244,0,0.438-0.033,0.584-0.064c0.323-0.064,0.421-0.422,0.47-0.891C194.236,79.713,194.236,78.434,194.236,76.943
			 M204.073,76.943v-2.85c0-2.459,0-2.914-0.032-3.432c-0.033-0.551-0.195-0.826-0.551-0.906c-0.178-0.049-0.388-0.064-0.583-0.064
			c-0.161,0-0.259-0.033-0.259-0.162c0-0.098,0.13-0.131,0.389-0.131c0.615,0,1.635,0.049,2.105,0.049
			c0.403,0,1.359-0.049,1.975-0.049c0.21,0,0.34,0.033,0.34,0.131c0,0.129-0.097,0.162-0.259,0.162s-0.292,0.016-0.486,0.047
			c-0.437,0.082-0.565,0.357-0.599,0.924c-0.032,0.518-0.032,0.973-0.032,3.432v2.85c0,1.57,0,2.85,0.065,3.545
			c0.048,0.438,0.16,0.73,0.646,0.795c0.228,0.031,0.583,0.064,0.826,0.064c0.178,0,0.259,0.049,0.259,0.129
			c0,0.113-0.13,0.162-0.308,0.162c-1.068,0-2.088-0.049-2.526-0.049c-0.372,0-1.392,0.049-2.039,0.049
			c-0.211,0-0.324-0.049-0.324-0.162c0-0.08,0.065-0.129,0.26-0.129c0.243,0,0.437-0.033,0.583-0.064
			c0.322-0.064,0.421-0.342,0.469-0.811C204.073,79.793,204.073,78.514,204.073,76.943 M210.569,75.52
			c0-2.768,1.83-6.346,6.687-6.346c4.031,0,6.54,2.346,6.54,6.055c0,3.707-2.59,6.637-6.702,6.637
			C212.448,81.865,210.569,78.385,210.569,75.52 M239.875,81.477c0-0.096,0.064-0.129,0.194-0.129c0.146,0,0.372-0.016,0.502-0.033
			c0.744-0.096,1.052-0.646,1.376-1.457l4.063-10.166c0.195-0.471,0.292-0.648,0.454-0.648c0.146,0,0.243,0.146,0.405,0.518
			c0.388,0.893,2.979,7.496,4.015,9.957c0.615,1.457,1.084,1.686,1.425,1.766c0.242,0.049,0.485,0.064,0.68,0.064
			c0.13,0,0.211,0.016,0.211,0.129c0,0.129-0.146,0.162-0.745,0.162c-0.583,0-1.765,0-3.06-0.033
			c-0.291-0.016-0.485-0.016-0.485-0.129c0-0.096,0.063-0.129,0.226-0.145c0.113-0.033,0.228-0.18,0.146-0.373l-1.295-3.434
			c-0.033-0.08-0.081-0.111-0.162-0.111h-3.611c-0.08,0-0.113,0.031-0.145,0.129l-0.874,2.314c-0.162,0.404-0.243,0.793-0.243,0.988
			c0,0.291,0.145,0.502,0.646,0.502h0.243c0.194,0,0.243,0.033,0.243,0.129c0,0.129-0.097,0.162-0.275,0.162
			c-0.518,0-1.214-0.049-1.716-0.049c-0.179,0-1.068,0.049-1.911,0.049C239.972,81.639,239.875,81.605,239.875,81.477
			 M255.632,76.943v-2.85c0-2.459,0-2.914-0.032-3.432c-0.031-0.551-0.161-0.809-0.695-0.924c-0.13-0.031-0.324-0.047-0.534-0.047
			c-0.179,0-0.276-0.033-0.276-0.146s0.114-0.146,0.357-0.146c0.76,0,1.78,0.049,2.217,0.049c0.389,0,1.571-0.049,2.202-0.049
			c0.227,0,0.34,0.033,0.34,0.146s-0.097,0.146-0.291,0.146c-0.178,0-0.437,0.016-0.632,0.047c-0.438,0.082-0.566,0.357-0.599,0.924
			c-0.032,0.518-0.032,0.973-0.032,3.432v2.85c0,2.072,0,3.189,0.34,3.48c0.275,0.244,0.696,0.357,1.959,0.357
			c0.858,0,1.489-0.018,1.894-0.453c0.194-0.211,0.39-0.664,0.422-0.973c0.016-0.145,0.049-0.242,0.178-0.242
			c0.113,0,0.13,0.08,0.13,0.275c0,0.178-0.114,1.393-0.243,1.861c-0.097,0.355-0.178,0.438-1.02,0.438
			c-1.166,0-2.009-0.033-2.736-0.049c-0.729-0.033-1.312-0.049-1.975-0.049c-0.179,0-0.535,0-0.924,0.016
			c-0.372,0-0.793,0.033-1.116,0.033c-0.21,0-0.324-0.049-0.324-0.162c0-0.08,0.064-0.129,0.259-0.129
			c0.243,0,0.438-0.033,0.583-0.064c0.324-0.064,0.405-0.422,0.469-0.891C255.632,79.713,255.632,78.434,255.632,76.943
			 M289.571,76.943v-2.85c0-2.459,0-2.914-0.033-3.432c-0.032-0.551-0.162-0.809-0.696-0.924c-0.13-0.031-0.404-0.047-0.631-0.047
			c-0.178,0-0.275-0.033-0.275-0.146s0.113-0.146,0.356-0.146c0.438,0,0.906,0.018,1.312,0.018c0.421,0.016,0.793,0.031,1.02,0.031
			c0.518,0,3.74,0,4.047-0.016c0.309-0.033,0.567-0.064,0.696-0.096c0.081-0.018,0.179-0.066,0.26-0.066s0.097,0.066,0.097,0.146
			c0,0.113-0.08,0.307-0.13,1.053c-0.016,0.162-0.048,0.873-0.081,1.068c-0.016,0.08-0.048,0.178-0.162,0.178
			c-0.112,0-0.145-0.08-0.145-0.227c0-0.113-0.017-0.389-0.098-0.584c-0.113-0.291-0.275-0.484-1.084-0.582
			c-0.275-0.031-1.976-0.064-2.299-0.064c-0.082,0-0.113,0.049-0.113,0.162v4.096c0,0.113,0.016,0.178,0.113,0.178
			c0.355,0,2.218,0,2.59-0.031c0.389-0.033,0.632-0.082,0.776-0.244c0.114-0.129,0.179-0.209,0.259-0.209
			c0.065,0,0.114,0.031,0.114,0.129c0,0.096-0.064,0.355-0.13,1.182c-0.016,0.324-0.064,0.971-0.064,1.084
			c0,0.129,0,0.309-0.146,0.309c-0.114,0-0.146-0.066-0.146-0.146c-0.017-0.162-0.017-0.373-0.065-0.582
			c-0.081-0.324-0.308-0.566-0.906-0.633c-0.308-0.031-1.911-0.047-2.299-0.047c-0.081,0-0.097,0.064-0.097,0.162v1.277
			c0,0.551-0.018,2.041,0,2.51c0.031,1.117,0.291,1.359,1.941,1.359c0.422,0,1.102,0,1.522-0.193
			c0.421-0.195,0.615-0.535,0.729-1.197c0.032-0.178,0.064-0.244,0.179-0.244c0.129,0,0.129,0.129,0.129,0.291
			c0,0.373-0.129,1.473-0.21,1.797c-0.114,0.422-0.259,0.422-0.874,0.422c-1.215,0-2.105-0.033-2.801-0.049
			c-0.696-0.033-1.198-0.049-1.685-0.049c-0.178,0-0.534,0-0.923,0.016c-0.372,0-0.793,0.033-1.117,0.033
			c-0.21,0-0.324-0.049-0.324-0.162c0-0.08,0.065-0.129,0.26-0.129c0.242,0,0.437-0.033,0.583-0.064
			c0.323-0.064,0.404-0.422,0.47-0.891C289.571,79.713,289.571,78.434,289.571,76.943 M299.009,75.52
			c0-2.768,1.829-6.346,6.687-6.346c4.031,0,6.541,2.346,6.541,6.055c0,3.707-2.591,6.637-6.703,6.637
			C300.887,81.865,299.009,78.385,299.009,75.52 M314.513,75.52c0-2.59,1.345-4.404,2.817-5.295
			c1.554-0.938,2.995-1.051,4.355-1.051c1.116,0,2.542,0.193,2.864,0.258c0.34,0.064,0.907,0.162,1.279,0.178
			c0.195,0.018,0.227,0.082,0.227,0.195c0,0.178-0.112,0.631-0.112,2.654c0,0.26-0.049,0.34-0.179,0.34
			c-0.113,0-0.146-0.08-0.161-0.209c-0.05-0.373-0.131-0.893-0.552-1.344c-0.484-0.52-1.78-1.264-3.609-1.264
			c-0.891,0-2.072,0.064-3.206,1.004c-0.906,0.762-1.489,1.975-1.489,3.967c0,3.48,2.218,6.088,5.634,6.088
			c0.421,0,0.988,0,1.376-0.18c0.243-0.113,0.309-0.322,0.309-0.6v-1.52c0-0.811,0-1.426-0.017-1.912
			c-0.017-0.551-0.162-0.809-0.696-0.922c-0.13-0.033-0.404-0.049-0.632-0.049c-0.146,0-0.242-0.033-0.242-0.131
			c0-0.129,0.113-0.16,0.34-0.16c0.842,0,1.861,0.049,2.348,0.049c0.502,0,1.359-0.049,1.895-0.049c0.21,0,0.323,0.031,0.323,0.16
			c0,0.098-0.097,0.131-0.211,0.131c-0.129,0-0.243,0.016-0.437,0.049c-0.438,0.08-0.6,0.355-0.615,0.922
			c-0.016,0.486-0.016,1.135-0.016,1.943v1.781c0,0.438-0.017,0.469-0.211,0.582c-1.053,0.551-2.64,0.729-3.901,0.729
			C318.026,81.865,314.513,79.986,314.513,75.52 M357.733,76.943v-2.85c0-2.459,0-2.914-0.033-3.432
			c-0.032-0.551-0.162-0.809-0.696-0.924c-0.129-0.031-0.404-0.047-0.631-0.047c-0.178,0-0.275-0.033-0.275-0.146
			s0.113-0.146,0.356-0.146c0.858,0,1.878,0.049,2.331,0.049c0.664,0,1.603-0.049,2.347-0.049c2.024,0,2.753,0.682,3.013,0.924
			c0.355,0.34,0.809,1.068,0.809,1.928c0,2.299-1.684,3.916-3.982,3.916c-0.081,0-0.259,0-0.34-0.016s-0.194-0.031-0.194-0.145
			c0-0.131,0.113-0.18,0.453-0.18c0.906,0,2.169-1.02,2.169-2.672c0-0.533-0.048-1.617-0.954-2.428
			c-0.583-0.533-1.247-0.631-1.619-0.631c-0.243,0-0.486,0.016-0.632,0.064c-0.08,0.033-0.129,0.131-0.129,0.309v6.475
			c0,1.49,0,2.77,0.08,3.465c0.049,0.453,0.146,0.811,0.632,0.875c0.227,0.031,0.583,0.064,0.825,0.064
			c0.179,0,0.26,0.049,0.26,0.129c0,0.113-0.129,0.162-0.309,0.162c-1.067,0-2.088-0.049-2.509-0.049
			c-0.372,0-1.392,0.049-2.04,0.049c-0.21,0-0.324-0.049-0.324-0.162c0-0.08,0.065-0.129,0.26-0.129
			c0.242,0,0.438-0.033,0.582-0.064c0.324-0.064,0.405-0.422,0.471-0.891C357.733,79.713,357.733,78.434,357.733,76.943
			 M368.833,76.943v-2.85c0-2.459,0-2.914-0.032-3.432c-0.031-0.551-0.162-0.809-0.695-0.924c-0.131-0.031-0.405-0.047-0.633-0.047
			c-0.178,0-0.274-0.033-0.274-0.146s0.113-0.146,0.34-0.146c0.874,0,1.894,0.049,2.331,0.049c0.389,0,1.409-0.049,2.04-0.049
			c0.227,0,0.34,0.033,0.34,0.146s-0.097,0.146-0.291,0.146c-0.13,0-0.274,0.016-0.47,0.047c-0.438,0.082-0.566,0.357-0.6,0.924
			c-0.031,0.518-0.031,0.973-0.031,3.432v0.34c0,0.082,0.048,0.115,0.097,0.115h6.185c0.049,0,0.098-0.033,0.098-0.115v-0.34
			c0-2.459,0-2.914-0.033-3.432c-0.032-0.551-0.162-0.809-0.696-0.924c-0.129-0.031-0.404-0.047-0.631-0.047
			c-0.178,0-0.274-0.033-0.274-0.146s0.112-0.146,0.34-0.146c0.874,0,1.894,0.049,2.331,0.049c0.388,0,1.407-0.049,2.04-0.049
			c0.226,0,0.34,0.033,0.34,0.146s-0.098,0.146-0.292,0.146c-0.129,0-0.275,0.016-0.47,0.047c-0.437,0.082-0.566,0.357-0.599,0.924
			c-0.033,0.518-0.033,0.973-0.033,3.432v2.85c0,1.49,0,2.77,0.081,3.465c0.049,0.453,0.146,0.811,0.632,0.875
			c0.227,0.031,0.583,0.064,0.825,0.064l-0.063,0.291c-1.054,0-2.073-0.049-2.526-0.049c-0.372,0-1.392,0.049-2.023,0.049
			c-0.227,0-0.341-0.049-0.341-0.162c0-0.08,0.065-0.129,0.26-0.129c0.242,0,0.438-0.033,0.583-0.064
			c0.323-0.064,0.404-0.422,0.47-0.891c0.081-0.68,0.081-1.959,0.081-3.449V75.52c0-0.064-0.049-0.098-0.098-0.098h-6.185
			c-0.049,0-0.097,0.016-0.097,0.098v1.424c0,1.49,0,2.77,0.081,3.465c0.049,0.453,0.146,0.811,0.631,0.875
			c0.227,0.031,0.583,0.064,0.826,0.064c0.178,0,0.259,0.049,0.259,0.129c0,0.113-0.129,0.162-0.324,0.162
			c-1.052,0-2.072-0.049-2.525-0.049c-0.373,0-1.393,0.049-2.04,0.049c-0.211,0-0.323-0.049-0.323-0.162
			c0-0.08,0.064-0.129,0.259-0.129c0.243,0,0.437-0.033,0.583-0.064c0.324-0.064,0.405-0.422,0.469-0.891
			C368.833,79.713,368.833,78.434,368.833,76.943 M381.207,81.639l0.065-0.291c0.178,0,0.259,0.049,0.259,0.129
			C381.531,81.59,381.402,81.639,381.207,81.639"/>
		<path fill="#ED1B2F" d="M301.243,75.018c0,3.367,1.862,6.039,4.97,6.039c1.134,0,3.756-0.551,3.756-5.23
			c0-3.625-2.088-5.875-4.742-5.875C303.364,69.951,301.243,70.986,301.243,75.018 M245.962,72.508l-1.489,3.982
			c-0.017,0.064,0,0.113,0.064,0.113h2.979c0.081,0,0.098-0.049,0.081-0.098l-1.457-3.998c-0.016-0.064-0.031-0.146-0.081-0.146
			C246.01,72.361,245.979,72.443,245.962,72.508 M212.803,75.018c0,3.367,1.862,6.039,4.972,6.039c1.133,0,3.756-0.551,3.756-5.23
			c0-3.625-2.089-5.875-4.744-5.875C214.924,69.951,212.803,70.986,212.803,75.018 M77.935,36.297c1.897,0,5.952,0,10.883,0v-20.73
			H77.935V36.297z M96.906,36.297c3.571,0,7.143,0,10.413,0V15.686l-0.067-0.119H96.888L96.906,36.297z M161.239,42.959
			c0.067,0.982-1.017,1.229-1.017,1.229h-15.392c-3.722,0-11.394,0.301-11.394,0.301l-1.306-1.838c0,0,1.657,0.086,3.317,0.117
			c0.002,0,2.596,0,5.753,0.002V27.104c-2.83,0.086-5.405,0.244-5.405,0.244l-1.305-1.838c0,0,1.656,0.086,3.316,0.117
			c0.002,0,1.48,0.002,3.394,0.002V14.303c-3.226,0.088-6.5,0.24-6.5,0.24l-1.306-1.838c0,0,1.658,0.086,3.316,0.115
			c0.004,0.002,14.766,0.006,14.766,0.006l2.547-3.402c0,0,0.503-0.764,1.263-0.764c0.61,0,0.94,0.238,1.813,0.994
			c1.322,1.146,3.006,2.656,3.055,3.357c0.066,0.984-1.016,1.23-1.016,1.23h-10.707v11.389c1.481,0,2.554,0,2.554,0l2.548-3.07
			c0,0,0.449-0.764,1.209-0.764c0.611,0,0.723,0.066,1.425,0.664c1.334,1.131,3.007,2.656,3.054,3.357
			c0.068,0.984-1.015,1.229-1.015,1.229h-9.774V42.77c2.34,0.002,4.127,0.002,4.127,0.002l2.549-3.402c0,0,0.431-0.529,1.041-0.674
			c-0.025-0.004-0.049,0.012-0.073,0.006c-2.281-0.449-2.177-2.031-2.97-4.057c-0.791-2.025-3.246-4.498-3.246-4.498
			c5.045-0.498,8.822,0.912,9.645,3.445c1.082,3.328-0.798,5.145-2.892,5.078c0.463,0.066,0.827,0.289,1.569,0.93
			C159.507,40.746,161.191,42.256,161.239,42.959 M162.428,50.08l0.028-43.059h-31.082l-0.078,0.033v43.023
			C145.329,50.08,159.635,50.08,162.428,50.08 M183.464,72.508l-1.489,3.982c-0.017,0.064,0,0.113,0.064,0.113h2.979
			c0.082,0,0.098-0.049,0.082-0.098l-1.457-3.998c-0.017-0.064-0.033-0.146-0.082-0.146S183.48,72.443,183.464,72.508
			 M216.873,42.959c0.068,0.982-1.015,1.229-1.015,1.229h-15.394c-3.722,0-11.393,0.301-11.393,0.301l-1.305-1.838
			c0,0,1.656,0.086,3.315,0.117c0.002,0,2.597,0,5.754,0.002V27.104c-2.831,0.086-5.405,0.244-5.405,0.244l-1.306-1.838
			c0,0,1.657,0.086,3.317,0.117c0,0,1.479,0.002,3.394,0.002V14.303c-3.227,0.088-6.501,0.24-6.501,0.24l-1.305-1.838
			c0,0,1.656,0.086,3.316,0.115c0.004,0.002,14.765,0.006,14.765,0.006l2.548-3.402c0,0,0.502-0.764,1.262-0.764
			c0.611,0,0.94,0.238,1.814,0.994c1.322,1.146,3.006,2.656,3.054,3.357c0.068,0.984-1.015,1.23-1.015,1.23h-10.708v11.389
			c1.481,0,2.554,0,2.554,0l2.549-3.07c0,0,0.448-0.764,1.208-0.764c0.611,0,0.722,0.066,1.425,0.664
			c1.334,1.131,3.008,2.656,3.056,3.357c0.066,0.984-1.017,1.229-1.017,1.229h-9.774V42.77c2.341,0.002,4.128,0.002,4.128,0.002
			l2.548-3.402c0,0,0.431-0.529,1.042-0.674c-0.026-0.004-0.049,0.012-0.074,0.006c-2.281-0.449-2.177-2.031-2.969-4.057
			s-3.246-4.498-3.246-4.498c5.044-0.498,8.821,0.912,9.645,3.445c1.081,3.328-0.799,5.145-2.893,5.078
			c0.463,0.066,0.829,0.289,1.57,0.93C215.141,40.746,216.825,42.256,216.873,42.959 M218.063,50.08l0.027-43.059h-31.082
			l-0.078,0.033v43.023C200.964,50.08,215.27,50.08,218.063,50.08 M347.896,72.508l-1.489,3.982c-0.017,0.064,0,0.113,0.064,0.113
			h2.979c0.081,0,0.098-0.049,0.081-0.098l-1.457-3.998c-0.017-0.064-0.032-0.146-0.081-0.146
			C347.944,72.361,347.911,72.443,347.896,72.508 M335.316,75.551c0.485-0.355,0.955-1.1,0.955-2.428
			c0-2.299-1.521-2.963-2.477-2.963c-0.405,0-0.697,0.016-0.858,0.064c-0.113,0.033-0.146,0.098-0.146,0.229v4.92
			c0,0.178,0.032,0.244,0.146,0.293c0.34,0.111,0.825,0.16,1.23,0.16C334.814,75.826,335.025,75.762,335.316,75.551 M357.252,21.904
			c0.841,0.857,1.61,1.648,2.055,2.199V8.678c-0.149,0.242-0.357,0.416-0.357,0.416h-5.603c-0.024,0-0.06,0.002-0.087,0.002v14.879
			c0.34,0.002,0.58,0.002,0.58,0.002l1.569-2.576c0,0,0.256-0.412,0.569-0.443C356.257,20.928,356.734,21.377,357.252,21.904
			 M366.217,18.574c1.806,0,3.62,0,5.356,0V6.693h-5.356V18.574z M366.217,32.184c1.81,0,3.628,0,5.356,0V19.992h-5.356V32.184z
			 M379.647,18.576c2.599,0,4.574,0,5.419,0l0.011-11.883h-5.43V18.576z M379.647,32.184c2.98,0.002,5.071,0.002,5.405,0.002
			l0.001-0.072l0.012-12.121h-5.418V32.184z M394.386,69.529c0,0.113-0.13,0.162-0.308,0.162c-0.162,0-0.47,0.064-0.712,0.193
			c-0.34,0.162-0.519,0.357-0.875,0.793c-0.534,0.648-2.8,4.453-3.092,5.148c-0.243,0.584-0.243,1.086-0.243,1.619v1.328
			c0,0.26,0,0.939,0.049,1.619c0.032,0.469,0.178,0.826,0.664,0.891c0.226,0.031,0.583,0.064,0.809,0.064
			c0.179,0,0.26,0.049,0.26,0.129c0,0.113-0.129,0.162-0.341,0.162c-1.02,0-2.04-0.049-2.477-0.049
			c-0.405,0-1.425,0.049-2.024,0.049c-0.226,0-0.355-0.033-0.355-0.162c0-0.08,0.081-0.129,0.259-0.129
			c0.228,0,0.421-0.033,0.567-0.064c0.323-0.064,0.469-0.422,0.502-0.891c0.048-0.68,0.048-1.359,0.048-1.619v-1.328
			c0-0.875-0.161-1.23-0.372-1.699c-0.113-0.26-2.283-3.82-2.849-4.662c-0.405-0.6-0.811-1.004-1.117-1.184
			c-0.211-0.111-0.486-0.209-0.681-0.209c-0.13,0-0.242-0.033-0.242-0.146c0-0.098,0.112-0.146,0.308-0.146
			c0.291,0,1.505,0.049,2.039,0.049c0.34,0,1.004-0.049,1.733-0.049c0.16,0,0.241,0.049,0.241,0.146s-0.112,0.113-0.355,0.178
			c-0.146,0.033-0.227,0.162-0.227,0.293c0,0.129,0.081,0.322,0.194,0.549c0.227,0.486,2.493,4.389,2.752,4.842
			c0.162-0.389,2.202-3.951,2.429-4.451c0.161-0.357,0.227-0.633,0.227-0.844c0-0.16-0.065-0.34-0.34-0.404
			c-0.146-0.031-0.291-0.064-0.291-0.162c0-0.113,0.081-0.146,0.274-0.146c0.534,0,1.053,0.049,1.522,0.049
			c0.355,0,1.425-0.049,1.731-0.049C394.272,69.398,394.386,69.432,394.386,69.529 M379.647,44.129v8.668c2.721,0,4.615,0,4.615,0
			l3.079-4.102c0,0,0.576-0.879,1.449-0.879c0.702,0,1.08,0.275,2.083,1.145c1.519,1.314,3.453,3.049,3.508,3.855
			c0.078,1.131-1.166,1.412-1.166,1.412l-26.254-0.012c-3.723,0-10.13,0.301-10.13,0.301l-1.305-1.838c0,0,1.656,0.086,3.316,0.117
			c0.001,0,6.368,0,12.729,0v-8.668h-0.629c-3.724,0-10.129,0.301-10.129,0.301l-1.307-1.838c0,0,1.657,0.086,3.317,0.117
			c0.001,0,4.186,0.002,8.747,0.002V33.6h-5.356v1.779c0,0.762-0.108,1.357-0.966,1.969c-0.864,0.613-1.906,0.91-3.481,1.059
			c-1.618,0.152-2.236,0-2.485-0.371c-0.25-0.373-0.291-0.801-0.291-1.271c0,0,0.313-4.771,0.313-5.676v-6.113
			c-0.149,0.244-0.357,0.418-0.357,0.418h-5.603c-0.025,0-0.06,0-0.087,0v16.094l6.61-1.961l0.644,0.359
			c0,0-11.13,7.756-14.086,11.789c-1.249,1.703-1.768,1.775-2.259,1.039c-0.319-0.479-2.601-6.156-2.72-6.623
			c-0.141-0.549,0.449-0.771,0.449-0.771s1.854-0.678,3.305-1.221c1.18-0.314,1.359-1.5,1.405-2.016
			c0.001-1.975,0.001-9.049,0.002-16.541c-2.249,0.076-4.038,0.15-4.038,0.15l-1.305-1.836c0,0,1.656,0.084,3.316,0.115
			c0.001,0,0.867,0.002,2.026,0.002c0.001-5.492,0.001-10.951,0.002-14.744c-2.705,0.08-5.011,0.166-5.011,0.166l-1.307-1.838
			c0,0,1.657,0.086,3.317,0.117c0.004,0,10.228,0.004,10.228,0.004l1.569-2.574c0,0,0.256-0.412,0.569-0.443
			c0.278-0.029,0.756,0.42,1.273,0.947c0.841,0.857,1.61,1.646,2.055,2.197V5.891c0-0.799-0.258-3.27-0.258-3.518
			c0-0.504,0.281-0.762,0.569-0.762c0.339-0.025,0.645,0.156,1.428,0.58l5.679,3.084c7.88,0.002,15.472,0.002,17.737,0.002
			c0.616-0.865,1.12-1.561,1.517-2.082c0.395-0.521,0.726-0.813,0.994-0.877c0.285-0.063,0.695,0.025,1.232,0.262
			c1.485,0.711,2.701,1.477,3.65,2.297c0.963,0.82,1.444,1.373,1.444,1.658c-0.016,0.348-0.458,0.939-1.327,1.775
			c0,0,0.002,16.348,0.002,18.205c0,3.188,0.305,6.807,0.273,7.734c-0.03,0.926,0.126,1.279-1.379,1.941
			c-1.514,0.664-2.497,0.738-3.635,0.734c-1-0.006-1.518-0.301-1.801-0.617c-0.285-0.314-0.42-0.861-0.403-1.633l0.01-1.076h-5.393
			v9.113c2.106,0,3.582,0,3.582,0l2.549-3.402c0,0,0.501-0.764,1.261-0.764c0.611,0,0.941,0.24,1.814,0.996
			c1.322,1.145,3.007,2.654,3.055,3.357c0.066,0.984-1.016,1.229-1.016,1.229H379.647z M336.045,75.939
			c1.441,1.814,2.559,3.254,3.514,4.258c0.906,0.939,1.569,1.053,1.813,1.102c0.178,0.033,0.324,0.049,0.454,0.049
			c0.059,0,0.056,0.041,0.088,0.059c0.033-0.016,0.03-0.059,0.089-0.059c0.146,0,0.373-0.016,0.502-0.033
			c0.745-0.096,1.052-0.646,1.376-1.457l4.064-10.166c0.193-0.471,0.291-0.648,0.453-0.648c0.146,0,0.242,0.146,0.404,0.518
			c0.389,0.893,2.979,7.496,4.016,9.957c0.614,1.457,1.085,1.686,1.425,1.766c0.242,0.049,0.485,0.064,0.679,0.064
			c0.13,0,0.211,0.016,0.211,0.129c0,0.129-0.146,0.162-0.745,0.162c-0.583,0-1.764,0-3.06-0.033
			c-0.291-0.016-0.485-0.016-0.485-0.129c0-0.096,0.065-0.129,0.227-0.145c0.113-0.033,0.227-0.18,0.146-0.373l-1.295-3.434
			c-0.032-0.08-0.081-0.111-0.162-0.111h-3.609c-0.081,0-0.114,0.031-0.146,0.129l-0.874,2.314
			c-0.162,0.404-0.243,0.793-0.243,0.988c0,0.291,0.146,0.502,0.648,0.502h0.242c0.194,0,0.243,0.033,0.243,0.129
			c0,0.129-0.098,0.162-0.275,0.162c-0.518,0-1.214-0.049-1.716-0.049c-0.179,0-1.069,0.049-1.91,0.049
			c-0.139,0-0.158-0.059-0.203-0.105c-0.048,0.047-0.074,0.105-0.202,0.105h-1.538c-0.905,0-1.311-0.08-1.731-0.307
			c-0.696-0.373-1.313-1.135-2.219-2.381c-0.647-0.891-1.392-1.99-1.603-2.234c-0.081-0.096-0.178-0.113-0.291-0.113l-1.409-0.033
			c-0.081,0-0.129,0.033-0.129,0.131v0.227c0,1.506,0,2.785,0.081,3.465c0.048,0.469,0.146,0.826,0.631,0.891
			c0.243,0.031,0.6,0.064,0.793,0.064c0.13,0,0.195,0.049,0.195,0.129c0,0.113-0.114,0.162-0.324,0.162
			c-0.938,0-2.137-0.049-2.38-0.049c-0.308,0-1.328,0.049-1.975,0.049c-0.211,0-0.324-0.049-0.324-0.162
			c0-0.08,0.064-0.129,0.259-0.129c0.243,0,0.437-0.033,0.583-0.064c0.324-0.064,0.405-0.422,0.469-0.891
			c0.081-0.68,0.081-1.959,0.081-3.449v-2.85c0-2.459,0-2.914-0.032-3.432c-0.031-0.551-0.161-0.809-0.695-0.924
			c-0.13-0.031-0.405-0.047-0.632-0.047c-0.179,0-0.275-0.033-0.275-0.146s0.113-0.146,0.356-0.146c0.857,0,1.878,0.049,2.218,0.049
			c0.551,0,1.78-0.049,2.283-0.049c1.02,0,2.104,0.098,2.979,0.697c0.453,0.307,1.101,1.133,1.101,2.217
			C338.182,73.512,337.68,74.611,336.045,75.939 M337.305,13.465c0.025,0.459-0.265,0.684-0.783,1.355
			c-0.749,0.973-0.699,2.656-0.699,2.656v13.736c0,2.541,0.146,4.883-0.905,6.145c-1.442,1.732-3.045,2.691-4.66,2.691
			c-1.385,0-1.753-1.049-1.645-1.641c0.23-1.271-1.021-2.857-1.646-3.336c-0.924-0.707-1.921-0.867-2.367-0.912l0.051-1.229
			c3.471,1.012,4.481,0.23,4.481-1.131c0-1.359,0-1.979,0-1.979l0.004-13.902c-1.747,0.645-3.437,1.42-4.734,2.08l0.017,19.604v0.9
			l0.213,3.045c-0.125,0.889-0.399,1.477-0.828,1.762c-0.426,0.285-1.155,0.516-2.188,0.693c-1.034,0.178-1.834,0.215-2.403,0.107
			c-0.677-0.09-1.147-0.285-1.415-0.588c-0.25-0.303-0.419-0.721-0.508-1.254l0.257-4.666l0.021-15.777l-3.781,2.176l-0.009,20.617
			c0,2.844,1.785,3.447,4.575,3.51c2.789,0.063,8.087-0.326,9.489-0.648c2.093-0.48,4.614-1.045,8.459-9.076l0.762,0.529
			c0,0-2.133,5.717-0.33,8.578c1.927,3.455-1.154,6.631-5.03,7.174s-13.131,1.059-19.116,0.303c-6.37-0.803-6.198-8.734-6.198-8.734
			s0-1.459,0.001-3.703c-0.593,0.414-11.104,7.793-13.978,11.713c-1.248,1.703-1.768,1.775-2.258,1.039
			c-0.32-0.48-2.603-6.158-2.722-6.625c-0.139-0.547,0.45-0.77,0.45-0.77s1.854-0.68,3.305-1.221c1.18-0.314,1.358-1.5,1.405-2.018
			c0-3.758,0.002-16.158,0.003-25.074c-2.406,0.08-4.389,0.162-4.389,0.162l-1.305-1.836c0,0,1.656,0.086,3.316,0.115
			c0.001,0.002,1.037,0.002,2.378,0.002c0-4.564,0.001-7.926,0.001-8.113c0-0.857-0.294-6.061-0.294-6.061
			c0-0.193,0.027-0.328,0.08-0.4c0.054-0.088,0.204-0.15,0.454-0.188c0.517-0.053,1.921,0.188,4.218,0.723
			c2.314,0.516,3.516,1.033,3.604,1.549c0.071,0.461-0.401,1.113-1.415,1.947v10.547c0.09,0,0.229,0,0.229,0l1.569-2.576
			c0,0,0.256-0.41,0.569-0.443c0.277-0.029,0.756,0.42,1.273,0.947c0.846,0.861,1.621,1.658,2.065,2.209
			c0.47,0.584-0.368,1.279-0.368,1.279h-5.339v24.617l6.609-1.961l0.535,0.299c0-3.338,0.001-8.43,0.002-13.471
			c-0.999,0.73-1.778,1.309-1.778,1.309l-2.666-1.145c0,0,1.488-0.766,2.954-1.58c0,0,0.582-0.336,1.49-0.861
			c0.001-7.246,0.003-13.82,0.003-14.096c0-0.855-0.293-6.059-0.293-6.059c0-0.195,0.025-0.33,0.079-0.4
			c0.054-0.088,0.204-0.15,0.453-0.188c0.517-0.053,1.922,0.188,4.218,0.721c2.314,0.518,4.31,1.139,4.398,1.654
			c0.071,0.463-0.443,1.008-1.458,1.844l-0.005,12.25c1.239-0.715,2.509-1.451,3.783-2.186l0.015-11.943l-0.294-6.086
			c0-0.197,0.027-0.33,0.08-0.402c0.054-0.088,0.205-0.15,0.455-0.186c0.604-0.072,2.063,0.168,4.378,0.721
			c2.331,0.533,3.541,1.049,3.631,1.547c0.071,0.43-0.41,1.078-1.442,1.949l0.01,10.453c2.158-1.248,3.71-2.145,4.137-2.391
			l1.308-2.768c0,0,0.438-0.814,0.825-1.031c0.742-0.41,2.166,0.316,3.455,0.998C335.652,11.877,337.279,13.006,337.305,13.465
			 M286.312,75.729c0,0.098-0.098,0.131-0.21,0.131c-0.131,0-0.243,0.016-0.438,0.049c-0.437,0.08-0.599,0.355-0.616,0.922
			c-0.016,0.486-0.016,1.135-0.016,1.943v1.781c0,0.438-0.017,0.469-0.21,0.582c-1.053,0.551-2.639,0.729-3.902,0.729
			c-3.966,0-7.479-1.879-7.479-6.346c0-2.59,1.344-4.404,2.817-5.295c1.555-0.938,2.995-1.051,4.354-1.051
			c1.118,0,2.542,0.193,2.866,0.258c0.34,0.064,0.906,0.162,1.278,0.178c0.194,0.018,0.228,0.082,0.228,0.195
			c0,0.178-0.114,0.631-0.114,2.654c0,0.26-0.048,0.34-0.178,0.34c-0.113,0-0.146-0.08-0.162-0.209
			c-0.048-0.373-0.129-0.893-0.55-1.344c-0.486-0.52-1.781-1.264-3.61-1.264c-0.891,0-2.073,0.064-3.206,1.004
			c-0.906,0.762-1.489,1.975-1.489,3.967c0,3.48,2.219,6.088,5.634,6.088c0.422,0,0.987,0,1.377-0.18
			c0.242-0.113,0.307-0.322,0.307-0.6v-1.52c0-0.811,0-1.426-0.016-1.912c-0.017-0.551-0.162-0.809-0.696-0.922
			c-0.129-0.033-0.405-0.049-0.631-0.049c-0.146,0-0.243-0.033-0.243-0.131c0-0.129,0.113-0.16,0.34-0.16
			c0.842,0,1.862,0.049,2.347,0.049c0.502,0,1.36-0.049,1.895-0.049C286.198,75.568,286.312,75.6,286.312,75.729 M286.008,44.246
			c-3.794,1.561-5.747,4.156-6.127,4.949c-0.379,0.795-1.319,0.543-1.319,0.543c-10.126-4.203-12.391-15.02-12.892-18.902
			c-1.018,0.316-1.875,0.57-2.587,0.775c1.416,2.9,2.334,6.111,2.347,9.596c0.016,4.195-0.854,7.637-3.004,10.717
			c-2.149,3.08-5.941,4.51-8.677,4.744c-1.338-3.162-2.933-6.031-7.44-6.816c-0.007,0-0.019,0-0.024,0v-0.76
			c0,0,2.083-0.025,5.584,0.367c0,0,0.588,0.045,1.155-0.156c0.787-0.527,1.516-1.137,2.112-1.906
			c0.249-0.398,0.541-0.768,0.76-1.188c0.1-0.18,0.185-0.371,0.275-0.559c0.47-0.994,0.852-2.039,1.129-3.131
			c0.049-0.207,0.096-0.424,0.142-0.645c0.107-0.5,0.117-1.035,0.18-1.553c-12.405,9.178-25.74,10.695-25.74,10.695
			s13.66-6.846,25.007-18.303c-0.091-0.289-0.266-0.527-0.373-0.805c-14.888,10.436-24.874,10.453-24.874,10.453
			s14.468-6.98,21.739-15.615c-0.187-0.217-0.329-0.471-0.525-0.68c-8.566,3.586-17.826,4.51-17.826,4.51s10.675-5.705,13.386-7.58
			c2.03-1.402,5.255-3.764,6.748-4.861h-2.23c-3.806,0-10.355,0.303-10.355,0.303l-1.335-1.861c0,0,1.694,0.086,3.391,0.117
			c0.005,0,19.855,0.006,19.855,0.006l3.394-4.131c0,0,0.553-0.732,1.032-0.732c0.625,0,1.207,0.578,2.184,1.551
			c0.604,0.604,1.167,1.168,1.684,1.699c0.153-0.219,0.665-0.965,1.753-2.869c0.737-1.289,0.178-1.783-0.172-1.957h-30.99
			c0.189,2.168-0.422,4.156-1.662,5.654c-1.938,2.34-4.131,2.967-5.606,2.674c-1.422-0.281-2.421-2.188-2.647-3.939
			c-0.401-3.094,2.049-4,4.274-5.873c2.031-1.713,1.901-5.752,1.901-5.752c1.932,1.914,2.893,3.893,3.372,5.799
			c4.056,0,8.112,0,11.942,0.002c0.068-0.719-0.173-2.16-0.479-3.191c-0.324-1.098-2.392-4.631-4.014-5.635
			c0,0,1.004,0.072,1.672,0.102c0.75,0.033,3.595-0.012,4.824,0.143c4.302,0.535,5.753,3.363,5.003,5.822
			c-0.365,1.197-1.107,2.023-1.813,2.76c5.169,0,9.56,0,12.527,0c0.304-0.236,1.747-1.361,3.887-3.105
			c1.653-1.346,3.044,0.01,7.724,6.08c0.422,0.547,0.406,1.076-0.36,1.297c-0.671,0.191-2.39,0.322-3.438,0.439
			c-2.225,0.248-3.636,0.463-7.016,2.262c0.607,0.654,1.021,1.164,1.057,1.395c0.153,0.988-1.286,0.943-1.286,0.943h-12.321
			c0.98,0.77,2.894,2.324,3.361,3.068c0.633,1.008-1.087,0.9-1.087,0.9c-2.323,0.23-5.894,1.82-5.894,1.82
			c-0.122,0.07-0.256,0.121-0.379,0.191c2.098,1.619,3.975,3.521,5.36,5.828c2.459-1.875,7.808-6.123,10.67-9.686
			c0,0,0.895-1.271,1.853-0.256c2.805,2.971,3.845,3.723,4.818,5.127c0.645,0.93-1.596,0.746-2.226,1.094
			c-2.613,1.449-6.252,2.811-9.408,3.863c4.609,7.816,9.275,11.023,15.303,12.752C286.761,43.838,286.008,44.246,286.008,44.246
			 M228.526,69.627c0.193,0.209,2.654,2.848,5.019,5.195c1.102,1.102,3.286,3.434,3.562,3.691h0.081l-0.161-7.268
			c-0.018-0.988-0.163-1.295-0.552-1.457c-0.242-0.098-0.631-0.098-0.857-0.098c-0.194,0-0.259-0.049-0.259-0.146
			c0-0.129,0.178-0.146,0.421-0.146c0.842,0,1.619,0.049,1.959,0.049c0.178,0,0.793-0.049,1.586-0.049
			c0.211,0,0.373,0.018,0.373,0.146c0,0.098-0.098,0.146-0.292,0.146c-0.162,0-0.291,0-0.485,0.047
			c-0.454,0.131-0.583,0.471-0.599,1.377l-0.179,10.217c0,0.355-0.064,0.502-0.211,0.502c-0.178,0-0.371-0.18-0.55-0.357
			c-1.02-0.971-3.093-3.092-4.775-4.76c-1.766-1.748-3.563-3.771-3.854-4.08h-0.049l0.178,6.801
			c0.032,1.264,0.243,1.684,0.567,1.797c0.274,0.098,0.582,0.113,0.842,0.113c0.178,0,0.275,0.033,0.275,0.129
			c0,0.129-0.146,0.162-0.373,0.162c-1.053,0-1.7-0.049-2.007-0.049c-0.146,0-0.907,0.049-1.749,0.049
			c-0.21,0-0.356-0.016-0.356-0.162c0-0.096,0.097-0.129,0.259-0.129c0.211,0,0.502-0.016,0.729-0.082
			c0.421-0.129,0.485-0.598,0.502-2.006l0.145-9.584c0-0.324,0.049-0.551,0.211-0.551C228.105,69.125,228.251,69.336,228.526,69.627
			 M227.811,7.326c-0.02,0.41-0.541,1.111-1.568,2.1c0,0,0,32.582,0,34.779c0,3.766,0.361,8.045,0.325,9.141
			s0.148,1.514-1.631,2.295c-1.789,0.787-2.951,0.873-4.298,0.869c-1.182-0.006-1.793-0.355-2.129-0.729s-0.495-1.018-0.476-1.932
			l0.021-2.354H186.93v1.865c0,0.865-0.123,1.545-1.098,2.236c-0.98,0.697-2.164,1.035-3.954,1.203c-1.838,0.172-2.54,0-2.823-0.422
			s-0.33-0.908-0.33-1.443c0,0,0.356-5.42,0.356-6.447V6.957c0-0.906-0.293-3.713-0.293-3.996c0-0.572,0.319-0.865,0.646-0.865
			c0.386-0.029,0.733,0.178,1.623,0.66l5.246,2.848c13.073,0.002,26.223,0.002,31.23,0.002c0.636-0.891,1.198-1.668,1.622-2.227
			c0.466-0.615,0.857-0.961,1.176-1.035c0.336-0.076,0.821,0.027,1.457,0.307c1.755,0.84,3.192,1.746,4.314,2.717
			C227.241,6.338,227.811,6.99,227.811,7.326 M178.073,81.314c0.743-0.096,1.052-0.646,1.376-1.457l4.063-10.166
			c0.195-0.471,0.293-0.648,0.455-0.648c0.146,0,0.242,0.146,0.404,0.518c0.389,0.893,2.979,7.496,4.014,9.957
			c0.616,1.457,1.086,1.686,1.426,1.766c0.242,0.049,0.485,0.064,0.68,0.064c0.13,0,0.211,0.016,0.211,0.129
			c0,0.129-0.146,0.162-0.745,0.162c-0.583,0-1.765,0-3.06-0.033c-0.291-0.016-0.486-0.016-0.486-0.129
			c0-0.096,0.064-0.129,0.227-0.145c0.113-0.033,0.228-0.18,0.146-0.373l-1.295-3.434c-0.033-0.08-0.081-0.111-0.162-0.111h-3.611
			c-0.08,0-0.113,0.031-0.145,0.129l-0.875,2.314c-0.161,0.404-0.242,0.793-0.242,0.988c0,0.291,0.145,0.502,0.646,0.502h0.244
			c0.193,0,0.242,0.033,0.242,0.129c0,0.129-0.097,0.162-0.275,0.162c-0.518,0-1.215-0.049-1.715-0.049
			c-0.18,0-1.07,0.049-1.912,0.049c-0.209,0-0.308-0.033-0.308-0.162c0-0.096,0.065-0.129,0.195-0.129
			C177.717,81.348,177.943,81.332,178.073,81.314 M176.725,69.545c0,0.098-0.098,0.146-0.293,0.146c-0.162,0-0.291,0-0.484,0.047
			c-0.454,0.131-0.583,0.471-0.6,1.377l-0.179,10.217c0,0.355-0.063,0.502-0.21,0.502c-0.178,0-0.372-0.18-0.55-0.357
			c-1.021-0.971-3.093-3.092-4.776-4.76c-1.765-1.748-3.562-3.771-3.853-4.08h-0.05l0.179,6.801
			c0.032,1.264,0.243,1.684,0.567,1.797c0.274,0.098,0.582,0.113,0.842,0.113c0.178,0,0.275,0.033,0.275,0.129
			c0,0.129-0.146,0.162-0.373,0.162c-1.053,0-1.699-0.049-2.008-0.049c-0.146,0-0.906,0.049-1.749,0.049
			c-0.21,0-0.356-0.016-0.356-0.162c0-0.096,0.098-0.129,0.26-0.129c0.211,0,0.502-0.016,0.729-0.082
			c0.422-0.129,0.486-0.598,0.502-2.006l0.146-9.584c0-0.324,0.049-0.551,0.211-0.551c0.178,0,0.324,0.211,0.599,0.502
			c0.194,0.209,2.655,2.848,5.02,5.195c1.101,1.102,3.285,3.434,3.563,3.691h0.079l-0.161-7.268
			c-0.017-0.988-0.162-1.295-0.551-1.457c-0.242-0.098-0.631-0.098-0.857-0.098c-0.194,0-0.26-0.049-0.26-0.146
			c0-0.129,0.178-0.146,0.422-0.146c0.842,0,1.619,0.049,1.959,0.049c0.178,0,0.793-0.049,1.586-0.049
			C176.563,69.398,176.725,69.416,176.725,69.545 M172.176,7.326c-0.019,0.41-0.541,1.111-1.568,2.1c0,0,0,32.582,0,34.779
			c0,3.766,0.361,8.045,0.326,9.141c-0.037,1.096,0.148,1.514-1.631,2.295c-1.791,0.787-2.951,0.873-4.298,0.869
			c-1.182-0.006-1.793-0.355-2.129-0.729s-0.496-1.018-0.476-1.932l0.021-2.354h-31.126v1.865c0,0.865-0.124,1.545-1.098,2.236
			c-0.981,0.697-2.164,1.035-3.954,1.203c-1.838,0.172-2.54,0-2.824-0.422c-0.283-0.422-0.328-0.908-0.328-1.443
			c0,0,0.355-5.42,0.355-6.447V6.957c0-0.906-0.294-3.713-0.294-3.996c0-0.572,0.319-0.865,0.647-0.865
			c0.385-0.029,0.731,0.178,1.622,0.66l5.245,2.848c13.074,0.002,26.223,0.002,31.23,0.002c0.637-0.891,1.199-1.668,1.621-2.227
			c0.468-0.615,0.859-0.961,1.178-1.035c0.336-0.076,0.82,0.027,1.457,0.307c1.755,0.84,3.191,1.746,4.313,2.717
			C171.605,6.338,172.176,6.99,172.176,7.326 M120.952,69.545c0,0.098-0.097,0.146-0.292,0.146c-0.162,0-0.291,0-0.486,0.047
			c-0.453,0.131-0.582,0.471-0.599,1.377l-0.179,10.217c0,0.355-0.063,0.502-0.209,0.502c-0.178,0-0.373-0.18-0.551-0.357
			c-1.02-0.971-3.093-3.092-4.775-4.76c-1.765-1.748-3.562-3.771-3.853-4.08h-0.049l0.178,6.801
			c0.032,1.264,0.243,1.684,0.567,1.797c0.275,0.098,0.582,0.113,0.841,0.113c0.178,0,0.276,0.033,0.276,0.129
			c0,0.129-0.146,0.162-0.373,0.162c-1.052,0-1.7-0.049-2.007-0.049c-0.146,0-0.907,0.049-1.749,0.049
			c-0.21,0-0.356-0.016-0.356-0.162c0-0.096,0.097-0.129,0.259-0.129c0.211,0,0.502-0.016,0.729-0.082
			c0.421-0.129,0.485-0.598,0.502-2.006l0.145-9.584c0-0.324,0.049-0.551,0.211-0.551c0.178,0,0.323,0.211,0.599,0.502
			c0.194,0.209,2.655,2.848,5.018,5.195c1.101,1.102,3.287,3.434,3.562,3.691h0.08l-0.161-7.268
			c-0.017-0.988-0.162-1.295-0.55-1.457c-0.243-0.098-0.633-0.098-0.858-0.098c-0.194,0-0.259-0.049-0.259-0.146
			c0-0.129,0.178-0.146,0.421-0.146c0.842,0,1.619,0.049,1.959,0.049c0.178,0,0.793-0.049,1.586-0.049
			C120.79,69.398,120.952,69.416,120.952,69.545 M117.464,15.711c-0.019,0.375-0.329,0.863-0.934,1.467l-1.308,1.336v14
			c0,1.674,0.259,5.273,0.407,6.957c0.063,0.709-0.644,1.539-2.684,2.107c-1.945,0.541-3.008,0.521-3.613,0.432
			c-0.891-0.107-1.461-0.348-1.693-0.705c-0.213-0.373-0.32-1.127-0.32-2.266v-1.326H96.907v9.361l0.347,7.656
			c-0.196,0.516-0.48,0.979-0.854,1.389c-0.357,0.406-1.051,0.781-2.083,1.119c-1.014,0.355-2.136,0.48-3.363,0.373
			c-1.122-0.09-1.816-0.311-2.083-0.666c-0.249-0.34-0.409-0.756-0.48-1.254l0.48-8.965l-0.024-9.014h-0.586l-10.326-0.002v1.42
			c0,0.865-0.124,1.545-1.098,2.236c-0.981,0.697-2.165,1.033-3.954,1.203c-1.839,0.174-2.54,0-2.824-0.422
			c-0.284-0.424-0.33-0.908-0.33-1.441c0,0,0.357-5.422,0.357-6.449V14.574c0-0.906-0.294-3.715-0.294-3.996
			c0-0.572,0.32-0.865,0.647-0.865c0.385-0.029,0.732,0.178,1.622,0.66l6.953,3.775c3.314,0,6.644,0,9.804,0.002V9.832l-0.427-6.35
			c-0.036-0.711,0.044-1.164,0.24-1.361c0.213-0.213,0.667-0.293,1.361-0.238c0.356,0.035,1.833,0.354,4.432,0.959
			c2.598,0.605,4.013,1.113,4.245,1.52c0.231,0.41,0.293,0.793,0.187,1.148c-0.089,0.338-0.347,0.666-0.774,0.986L96.88,7.379
			l0.006,6.771c4.171,0,7.606,0,9.719,0c0.724-0.99,1.371-1.879,1.916-2.627c0.569-0.801,1.049-1.227,1.441-1.281
			c0.391-0.053,1.05,0.232,1.976,0.854l2.242,1.441C116.387,13.977,117.482,15.037,117.464,15.711 M56.413,82.314H0V3.029h56.413
			v46.27h-6.988V6.98H3.95v71.383h45.475V63.912h6.988V82.314z M69.971,75.326c0-1.102,0.34-3.014,1.894-4.438
			c1.166-1.068,2.704-1.715,5.116-1.715c1.004,0,1.603,0.063,2.348,0.162c0.615,0.08,1.133,0.225,1.619,0.273
			c0.178,0.018,0.243,0.098,0.243,0.195c0,0.129-0.049,0.324-0.082,0.889c-0.032,0.535-0.016,1.426-0.048,1.75
			c-0.016,0.242-0.049,0.371-0.194,0.371c-0.13,0-0.162-0.129-0.162-0.355c-0.016-0.502-0.227-1.068-0.631-1.488
			c-0.535-0.568-1.798-1.004-3.287-1.004c-1.409,0-2.331,0.355-3.044,1.004c-1.182,1.084-1.489,2.621-1.489,4.193
			c0,3.852,2.93,5.762,5.099,5.762c1.441,0,2.316-0.162,2.963-0.906c0.276-0.307,0.486-0.775,0.551-1.068
			c0.048-0.26,0.081-0.324,0.21-0.324c0.114,0,0.146,0.115,0.146,0.244c0,0.193-0.194,1.602-0.356,2.152
			c-0.081,0.275-0.146,0.357-0.421,0.471c-0.648,0.258-1.878,0.371-2.914,0.371c-2.218,0-4.08-0.484-5.553-1.764
			C70.392,78.709,69.971,76.895,69.971,75.326 M85.184,76.943v-2.85c0-2.459,0-2.914-0.033-3.432
			c-0.032-0.551-0.162-0.809-0.696-0.924c-0.129-0.031-0.405-0.047-0.631-0.047c-0.178,0-0.275-0.033-0.275-0.146
			s0.113-0.146,0.34-0.146c0.874,0,1.894,0.049,2.331,0.049c0.388,0,1.408-0.049,2.04-0.049c0.226,0,0.34,0.033,0.34,0.146
			s-0.097,0.146-0.292,0.146c-0.129,0-0.275,0.016-0.469,0.047c-0.437,0.082-0.567,0.357-0.599,0.924
			c-0.033,0.518-0.033,0.973-0.033,3.432v0.34c0,0.082,0.049,0.115,0.098,0.115h6.184c0.049,0,0.097-0.033,0.097-0.115v-0.34
			c0-2.459,0-2.914-0.032-3.432c-0.033-0.551-0.162-0.809-0.696-0.924c-0.13-0.031-0.405-0.047-0.632-0.047
			c-0.178,0-0.275-0.033-0.275-0.146s0.113-0.146,0.34-0.146c0.874,0,1.894,0.049,2.331,0.049c0.389,0,1.409-0.049,2.04-0.049
			c0.227,0,0.34,0.033,0.34,0.146s-0.097,0.146-0.291,0.146c-0.13,0-0.275,0.016-0.47,0.047c-0.437,0.082-0.566,0.357-0.599,0.924
			c-0.032,0.518-0.032,0.973-0.032,3.432v2.85c0,1.49,0,2.77,0.081,3.465c0.048,0.453,0.146,0.811,0.631,0.875
			c0.227,0.031,0.583,0.064,0.826,0.064c0.178,0,0.259,0.049,0.259,0.129c0,0.113-0.13,0.162-0.324,0.162
			c-1.052,0-2.072-0.049-2.526-0.049c-0.372,0-1.392,0.049-2.023,0.049c-0.227,0-0.34-0.049-0.34-0.162
			c0-0.08,0.065-0.129,0.259-0.129c0.243,0,0.437-0.033,0.583-0.064c0.323-0.064,0.404-0.422,0.469-0.891
			c0.081-0.68,0.081-1.959,0.081-3.449V75.52c0-0.064-0.048-0.098-0.097-0.098h-6.184c-0.049,0-0.098,0.016-0.098,0.098v1.424
			c0,1.49,0,2.77,0.081,3.465c0.049,0.453,0.146,0.811,0.632,0.875c0.226,0.031,0.583,0.064,0.826,0.064
			c0.177,0,0.258,0.049,0.258,0.129c0,0.113-0.129,0.162-0.323,0.162c-1.053,0-2.073-0.049-2.526-0.049
			c-0.372,0-1.392,0.049-2.04,0.049c-0.21,0-0.323-0.049-0.323-0.162c0-0.08,0.064-0.129,0.258-0.129
			c0.243,0,0.438-0.033,0.583-0.064c0.324-0.064,0.405-0.422,0.47-0.891C85.184,79.713,85.184,78.434,85.184,76.943 M101.179,76.943
			v-2.85c0-2.459,0-2.914-0.033-3.432c-0.032-0.551-0.194-0.826-0.55-0.906c-0.178-0.049-0.389-0.064-0.583-0.064
			c-0.162,0-0.259-0.033-0.259-0.162c0-0.098,0.13-0.131,0.389-0.131c0.615,0,1.635,0.049,2.104,0.049
			c0.405,0,1.36-0.049,1.976-0.049c0.21,0,0.339,0.033,0.339,0.131c0,0.129-0.097,0.162-0.259,0.162
			c-0.161,0-0.291,0.016-0.485,0.047c-0.437,0.082-0.567,0.357-0.599,0.924c-0.033,0.518-0.033,0.973-0.033,3.432v2.85
			c0,1.57,0,2.85,0.065,3.545c0.049,0.438,0.162,0.73,0.648,0.795c0.226,0.031,0.583,0.064,0.825,0.064
			c0.178,0,0.259,0.049,0.259,0.129c0,0.113-0.129,0.162-0.307,0.162c-1.069,0-2.089-0.049-2.526-0.049
			c-0.372,0-1.392,0.049-2.04,0.049c-0.21,0-0.324-0.049-0.324-0.162c0-0.08,0.065-0.129,0.259-0.129
			c0.243,0,0.438-0.033,0.583-0.064c0.324-0.064,0.421-0.342,0.47-0.811C101.179,79.793,101.179,78.514,101.179,76.943
			 M124.821,76.943v-2.85c0-2.459,0-2.914-0.033-3.432c-0.032-0.551-0.162-0.809-0.696-0.924c-0.129-0.031-0.404-0.047-0.631-0.047
			c-0.178,0-0.275-0.033-0.275-0.146s0.113-0.146,0.356-0.146c0.437,0,0.906,0.018,1.312,0.018c0.42,0.016,0.793,0.031,1.02,0.031
			c0.518,0,3.74,0,4.047-0.016c0.309-0.033,0.567-0.064,0.697-0.096c0.081-0.018,0.178-0.066,0.259-0.066s0.097,0.066,0.097,0.146
			c0,0.113-0.08,0.307-0.129,1.053c-0.017,0.162-0.049,0.873-0.082,1.068c-0.016,0.08-0.048,0.178-0.162,0.178
			c-0.112,0-0.145-0.08-0.145-0.227c0-0.113-0.016-0.389-0.098-0.584c-0.113-0.291-0.275-0.484-1.084-0.582
			c-0.275-0.031-1.976-0.064-2.299-0.064c-0.082,0-0.113,0.049-0.113,0.162v4.096c0,0.113,0.016,0.178,0.113,0.178
			c0.355,0,2.217,0,2.59-0.031c0.389-0.033,0.632-0.082,0.777-0.244c0.113-0.129,0.178-0.209,0.258-0.209
			c0.065,0,0.114,0.031,0.114,0.129c0,0.096-0.065,0.355-0.13,1.182c-0.016,0.324-0.064,0.971-0.064,1.084
			c0,0.129,0,0.309-0.146,0.309c-0.114,0-0.146-0.066-0.146-0.146c-0.017-0.162-0.017-0.373-0.065-0.582
			c-0.081-0.324-0.308-0.566-0.906-0.633c-0.308-0.031-1.911-0.047-2.299-0.047c-0.081,0-0.097,0.064-0.097,0.162v1.277
			c0,0.551-0.016,2.041,0,2.51c0.031,1.117,0.291,1.359,1.941,1.359c0.422,0,1.102,0,1.522-0.193
			c0.421-0.195,0.614-0.535,0.729-1.197c0.031-0.178,0.064-0.244,0.178-0.244c0.129,0,0.129,0.129,0.129,0.291
			c0,0.373-0.129,1.473-0.211,1.797c-0.112,0.422-0.258,0.422-0.873,0.422c-1.215,0-2.105-0.033-2.801-0.049
			c-0.696-0.033-1.198-0.049-1.685-0.049c-0.178,0-0.534,0-0.923,0.016c-0.372,0-0.793,0.033-1.117,0.033
			c-0.21,0-0.324-0.049-0.324-0.162c0-0.08,0.065-0.129,0.26-0.129c0.242,0,0.438-0.033,0.582-0.064
			c0.324-0.064,0.406-0.422,0.471-0.891C124.821,79.713,124.821,78.434,124.821,76.943 M134.352,80.895
			c0-0.891,0.064-1.861,0.08-2.121c0.017-0.244,0.065-0.422,0.194-0.422c0.146,0,0.162,0.146,0.162,0.275
			c0,0.211,0.065,0.551,0.146,0.826c0.356,1.197,1.312,1.635,2.315,1.635c1.457,0,2.169-0.986,2.169-1.844
			c0-0.795-0.242-1.539-1.586-2.592l-0.745-0.584c-1.78-1.391-2.396-2.523-2.396-3.836c0-1.779,1.488-3.059,3.74-3.059
			c1.051,0,1.731,0.162,2.152,0.273c0.145,0.033,0.227,0.082,0.227,0.195c0,0.211-0.064,0.68-0.064,1.943
			c0,0.355-0.049,0.484-0.178,0.484c-0.114,0-0.162-0.098-0.162-0.291c0-0.145-0.081-0.646-0.421-1.068
			c-0.243-0.309-0.714-0.793-1.765-0.793c-1.199,0-1.927,0.695-1.927,1.668c0,0.744,0.372,1.311,1.716,2.33l0.453,0.34
			c1.959,1.473,2.655,2.59,2.655,4.129c0,0.939-0.356,2.057-1.522,2.818c-0.809,0.518-1.716,0.662-2.574,0.662
			c-0.938,0-1.666-0.113-2.362-0.422C134.4,81.332,134.352,81.25,134.352,80.895 M145.23,76.943v-2.85c0-2.459,0-2.914-0.032-3.432
			c-0.033-0.551-0.162-0.809-0.697-0.924c-0.129-0.031-0.403-0.047-0.631-0.047c-0.179,0-0.274-0.033-0.274-0.146
			s0.112-0.146,0.355-0.146c0.438,0,0.906,0.018,1.311,0.018c0.422,0.016,0.795,0.031,1.021,0.031c0.519,0,3.739,0,4.048-0.016
			c0.307-0.033,0.566-0.064,0.695-0.096c0.082-0.018,0.179-0.066,0.26-0.066s0.097,0.066,0.097,0.146
			c0,0.113-0.081,0.307-0.129,1.053c-0.017,0.162-0.049,0.873-0.081,1.068c-0.017,0.08-0.049,0.178-0.162,0.178
			s-0.146-0.08-0.146-0.227c0-0.113-0.017-0.389-0.097-0.584c-0.113-0.291-0.275-0.484-1.086-0.582
			c-0.274-0.031-1.975-0.064-2.299-0.064c-0.08,0-0.113,0.049-0.113,0.162v4.096c0,0.113,0.017,0.178,0.113,0.178
			c0.356,0,2.219,0,2.592-0.031c0.388-0.033,0.631-0.082,0.776-0.244c0.113-0.129,0.179-0.209,0.259-0.209
			c0.064,0,0.113,0.031,0.113,0.129c0,0.096-0.064,0.355-0.13,1.182c-0.017,0.324-0.063,0.971-0.063,1.084
			c0,0.129,0,0.309-0.146,0.309c-0.113,0-0.146-0.066-0.146-0.146c-0.016-0.162-0.016-0.373-0.063-0.582
			c-0.081-0.324-0.308-0.566-0.907-0.633c-0.309-0.031-1.91-0.047-2.299-0.047c-0.081,0-0.098,0.064-0.098,0.162v1.277
			c0,0.551-0.016,2.041,0,2.51c0.033,1.117,0.291,1.359,1.943,1.359c0.422,0,1.102,0,1.521-0.193
			c0.421-0.195,0.615-0.535,0.729-1.197c0.033-0.178,0.065-0.244,0.178-0.244c0.131,0,0.131,0.129,0.131,0.291
			c0,0.373-0.131,1.473-0.211,1.797c-0.113,0.422-0.26,0.422-0.875,0.422c-1.213,0-2.104-0.033-2.801-0.049
			c-0.695-0.033-1.197-0.049-1.683-0.049c-0.179,0-0.535,0-0.923,0.016c-0.373,0-0.794,0.033-1.118,0.033
			c-0.21,0-0.323-0.049-0.323-0.162c0-0.08,0.064-0.129,0.26-0.129c0.242,0,0.437-0.033,0.582-0.064
			c0.323-0.064,0.404-0.422,0.469-0.891C145.23,79.713,145.23,78.434,145.23,76.943 M194.236,76.943v-6.637l-2.413,0.064
			c-0.938,0.031-1.327,0.113-1.57,0.469c-0.161,0.244-0.243,0.438-0.274,0.568c-0.033,0.129-0.082,0.193-0.18,0.193
			c-0.113,0-0.145-0.082-0.145-0.26c0-0.258,0.307-1.732,0.34-1.861c0.048-0.211,0.098-0.307,0.193-0.307
			c0.131,0,0.291,0.162,0.697,0.193c0.469,0.049,1.084,0.08,1.618,0.08h6.411c0.518,0,0.875-0.049,1.117-0.08
			c0.243-0.049,0.373-0.08,0.437-0.08c0.114,0,0.13,0.096,0.13,0.34c0,0.34-0.049,1.457-0.049,1.877
			c-0.016,0.162-0.048,0.26-0.145,0.26c-0.13,0-0.162-0.082-0.178-0.324l-0.018-0.178c-0.032-0.422-0.469-0.875-1.91-0.908
			l-2.04-0.047v6.637c0,1.49,0,2.77,0.081,3.465c0.049,0.453,0.146,0.811,0.631,0.875c0.228,0.031,0.583,0.064,0.826,0.064
			c0.178,0,0.259,0.049,0.259,0.129c0,0.113-0.129,0.162-0.307,0.162c-1.069,0-2.089-0.049-2.542-0.049
			c-0.373,0-1.393,0.049-2.04,0.049c-0.211,0-0.323-0.049-0.323-0.162c0-0.08,0.064-0.129,0.258-0.129
			c0.244,0,0.438-0.033,0.584-0.064c0.323-0.064,0.421-0.422,0.47-0.891C194.236,79.713,194.236,78.434,194.236,76.943
			 M204.073,76.943v-2.85c0-2.459,0-2.914-0.032-3.432c-0.033-0.551-0.195-0.826-0.551-0.906c-0.178-0.049-0.388-0.064-0.583-0.064
			c-0.161,0-0.259-0.033-0.259-0.162c0-0.098,0.13-0.131,0.389-0.131c0.615,0,1.635,0.049,2.105,0.049
			c0.403,0,1.359-0.049,1.975-0.049c0.21,0,0.34,0.033,0.34,0.131c0,0.129-0.097,0.162-0.259,0.162s-0.292,0.016-0.486,0.047
			c-0.437,0.082-0.565,0.357-0.599,0.924c-0.032,0.518-0.032,0.973-0.032,3.432v2.85c0,1.57,0,2.85,0.065,3.545
			c0.048,0.438,0.16,0.73,0.646,0.795c0.228,0.031,0.583,0.064,0.826,0.064c0.178,0,0.259,0.049,0.259,0.129
			c0,0.113-0.13,0.162-0.308,0.162c-1.068,0-2.088-0.049-2.526-0.049c-0.372,0-1.392,0.049-2.039,0.049
			c-0.211,0-0.324-0.049-0.324-0.162c0-0.08,0.065-0.129,0.26-0.129c0.243,0,0.437-0.033,0.583-0.064
			c0.322-0.064,0.421-0.342,0.469-0.811C204.073,79.793,204.073,78.514,204.073,76.943 M210.569,75.52
			c0-2.768,1.83-6.346,6.687-6.346c4.031,0,6.54,2.346,6.54,6.055c0,3.707-2.59,6.637-6.702,6.637
			C212.448,81.865,210.569,78.385,210.569,75.52 M239.875,81.477c0-0.096,0.064-0.129,0.194-0.129c0.146,0,0.372-0.016,0.502-0.033
			c0.744-0.096,1.052-0.646,1.376-1.457l4.063-10.166c0.195-0.471,0.292-0.648,0.454-0.648c0.146,0,0.243,0.146,0.405,0.518
			c0.388,0.893,2.979,7.496,4.015,9.957c0.615,1.457,1.084,1.686,1.425,1.766c0.242,0.049,0.485,0.064,0.68,0.064
			c0.13,0,0.211,0.016,0.211,0.129c0,0.129-0.146,0.162-0.745,0.162c-0.583,0-1.765,0-3.06-0.033
			c-0.291-0.016-0.485-0.016-0.485-0.129c0-0.096,0.063-0.129,0.226-0.145c0.113-0.033,0.228-0.18,0.146-0.373l-1.295-3.434
			c-0.033-0.08-0.081-0.111-0.162-0.111h-3.611c-0.08,0-0.113,0.031-0.145,0.129l-0.874,2.314c-0.162,0.404-0.243,0.793-0.243,0.988
			c0,0.291,0.145,0.502,0.646,0.502h0.243c0.194,0,0.243,0.033,0.243,0.129c0,0.129-0.097,0.162-0.275,0.162
			c-0.518,0-1.214-0.049-1.716-0.049c-0.179,0-1.068,0.049-1.911,0.049C239.972,81.639,239.875,81.605,239.875,81.477
			 M255.632,76.943v-2.85c0-2.459,0-2.914-0.032-3.432c-0.031-0.551-0.161-0.809-0.695-0.924c-0.13-0.031-0.324-0.047-0.534-0.047
			c-0.179,0-0.276-0.033-0.276-0.146s0.114-0.146,0.357-0.146c0.76,0,1.78,0.049,2.217,0.049c0.389,0,1.571-0.049,2.202-0.049
			c0.227,0,0.34,0.033,0.34,0.146s-0.097,0.146-0.291,0.146c-0.178,0-0.437,0.016-0.632,0.047c-0.438,0.082-0.566,0.357-0.599,0.924
			c-0.032,0.518-0.032,0.973-0.032,3.432v2.85c0,2.072,0,3.189,0.34,3.48c0.275,0.244,0.696,0.357,1.959,0.357
			c0.858,0,1.489-0.018,1.894-0.453c0.194-0.211,0.39-0.664,0.422-0.973c0.016-0.145,0.049-0.242,0.178-0.242
			c0.113,0,0.13,0.08,0.13,0.275c0,0.178-0.114,1.393-0.243,1.861c-0.097,0.355-0.178,0.438-1.02,0.438
			c-1.166,0-2.009-0.033-2.736-0.049c-0.729-0.033-1.312-0.049-1.975-0.049c-0.179,0-0.535,0-0.924,0.016
			c-0.372,0-0.793,0.033-1.116,0.033c-0.21,0-0.324-0.049-0.324-0.162c0-0.08,0.064-0.129,0.259-0.129
			c0.243,0,0.438-0.033,0.583-0.064c0.324-0.064,0.405-0.422,0.469-0.891C255.632,79.713,255.632,78.434,255.632,76.943
			 M289.571,76.943v-2.85c0-2.459,0-2.914-0.033-3.432c-0.032-0.551-0.162-0.809-0.696-0.924c-0.13-0.031-0.404-0.047-0.631-0.047
			c-0.178,0-0.275-0.033-0.275-0.146s0.113-0.146,0.356-0.146c0.438,0,0.906,0.018,1.312,0.018c0.421,0.016,0.793,0.031,1.02,0.031
			c0.518,0,3.74,0,4.047-0.016c0.309-0.033,0.567-0.064,0.696-0.096c0.081-0.018,0.179-0.066,0.26-0.066s0.097,0.066,0.097,0.146
			c0,0.113-0.08,0.307-0.13,1.053c-0.016,0.162-0.048,0.873-0.081,1.068c-0.016,0.08-0.048,0.178-0.162,0.178
			c-0.112,0-0.145-0.08-0.145-0.227c0-0.113-0.017-0.389-0.098-0.584c-0.113-0.291-0.275-0.484-1.084-0.582
			c-0.275-0.031-1.976-0.064-2.299-0.064c-0.082,0-0.113,0.049-0.113,0.162v4.096c0,0.113,0.016,0.178,0.113,0.178
			c0.355,0,2.218,0,2.59-0.031c0.389-0.033,0.632-0.082,0.776-0.244c0.114-0.129,0.179-0.209,0.259-0.209
			c0.065,0,0.114,0.031,0.114,0.129c0,0.096-0.064,0.355-0.13,1.182c-0.016,0.324-0.064,0.971-0.064,1.084
			c0,0.129,0,0.309-0.146,0.309c-0.114,0-0.146-0.066-0.146-0.146c-0.017-0.162-0.017-0.373-0.065-0.582
			c-0.081-0.324-0.308-0.566-0.906-0.633c-0.308-0.031-1.911-0.047-2.299-0.047c-0.081,0-0.097,0.064-0.097,0.162v1.277
			c0,0.551-0.018,2.041,0,2.51c0.031,1.117,0.291,1.359,1.941,1.359c0.422,0,1.102,0,1.522-0.193
			c0.421-0.195,0.615-0.535,0.729-1.197c0.032-0.178,0.064-0.244,0.179-0.244c0.129,0,0.129,0.129,0.129,0.291
			c0,0.373-0.129,1.473-0.21,1.797c-0.114,0.422-0.259,0.422-0.874,0.422c-1.215,0-2.105-0.033-2.801-0.049
			c-0.696-0.033-1.198-0.049-1.685-0.049c-0.178,0-0.534,0-0.923,0.016c-0.372,0-0.793,0.033-1.117,0.033
			c-0.21,0-0.324-0.049-0.324-0.162c0-0.08,0.065-0.129,0.26-0.129c0.242,0,0.437-0.033,0.583-0.064
			c0.323-0.064,0.404-0.422,0.47-0.891C289.571,79.713,289.571,78.434,289.571,76.943 M299.009,75.52
			c0-2.768,1.829-6.346,6.687-6.346c4.031,0,6.541,2.346,6.541,6.055c0,3.707-2.591,6.637-6.703,6.637
			C300.887,81.865,299.009,78.385,299.009,75.52 M314.513,75.52c0-2.59,1.345-4.404,2.817-5.295
			c1.554-0.938,2.995-1.051,4.355-1.051c1.116,0,2.542,0.193,2.864,0.258c0.34,0.064,0.907,0.162,1.279,0.178
			c0.195,0.018,0.227,0.082,0.227,0.195c0,0.178-0.112,0.631-0.112,2.654c0,0.26-0.049,0.34-0.179,0.34
			c-0.113,0-0.146-0.08-0.161-0.209c-0.05-0.373-0.131-0.893-0.552-1.344c-0.484-0.52-1.78-1.264-3.609-1.264
			c-0.891,0-2.072,0.064-3.206,1.004c-0.906,0.762-1.489,1.975-1.489,3.967c0,3.48,2.218,6.088,5.634,6.088
			c0.421,0,0.988,0,1.376-0.18c0.243-0.113,0.309-0.322,0.309-0.6v-1.52c0-0.811,0-1.426-0.017-1.912
			c-0.017-0.551-0.162-0.809-0.696-0.922c-0.13-0.033-0.404-0.049-0.632-0.049c-0.146,0-0.242-0.033-0.242-0.131
			c0-0.129,0.113-0.16,0.34-0.16c0.842,0,1.861,0.049,2.348,0.049c0.502,0,1.359-0.049,1.895-0.049c0.21,0,0.323,0.031,0.323,0.16
			c0,0.098-0.097,0.131-0.211,0.131c-0.129,0-0.243,0.016-0.437,0.049c-0.438,0.08-0.6,0.355-0.615,0.922
			c-0.016,0.486-0.016,1.135-0.016,1.943v1.781c0,0.438-0.017,0.469-0.211,0.582c-1.053,0.551-2.64,0.729-3.901,0.729
			C318.026,81.865,314.513,79.986,314.513,75.52 M357.733,76.943v-2.85c0-2.459,0-2.914-0.033-3.432
			c-0.032-0.551-0.162-0.809-0.696-0.924c-0.129-0.031-0.404-0.047-0.631-0.047c-0.178,0-0.275-0.033-0.275-0.146
			s0.113-0.146,0.356-0.146c0.858,0,1.878,0.049,2.331,0.049c0.664,0,1.603-0.049,2.347-0.049c2.024,0,2.753,0.682,3.013,0.924
			c0.355,0.34,0.809,1.068,0.809,1.928c0,2.299-1.684,3.916-3.982,3.916c-0.081,0-0.259,0-0.34-0.016s-0.194-0.031-0.194-0.145
			c0-0.131,0.113-0.18,0.453-0.18c0.906,0,2.169-1.02,2.169-2.672c0-0.533-0.048-1.617-0.954-2.428
			c-0.583-0.533-1.247-0.631-1.619-0.631c-0.243,0-0.486,0.016-0.632,0.064c-0.08,0.033-0.129,0.131-0.129,0.309v6.475
			c0,1.49,0,2.77,0.08,3.465c0.049,0.453,0.146,0.811,0.632,0.875c0.227,0.031,0.583,0.064,0.825,0.064
			c0.179,0,0.26,0.049,0.26,0.129c0,0.113-0.129,0.162-0.309,0.162c-1.067,0-2.088-0.049-2.509-0.049
			c-0.372,0-1.392,0.049-2.04,0.049c-0.21,0-0.324-0.049-0.324-0.162c0-0.08,0.065-0.129,0.26-0.129
			c0.242,0,0.438-0.033,0.582-0.064c0.324-0.064,0.405-0.422,0.471-0.891C357.733,79.713,357.733,78.434,357.733,76.943
			 M368.833,76.943v-2.85c0-2.459,0-2.914-0.032-3.432c-0.031-0.551-0.162-0.809-0.695-0.924c-0.131-0.031-0.405-0.047-0.633-0.047
			c-0.178,0-0.274-0.033-0.274-0.146s0.113-0.146,0.34-0.146c0.874,0,1.894,0.049,2.331,0.049c0.389,0,1.409-0.049,2.04-0.049
			c0.227,0,0.34,0.033,0.34,0.146s-0.097,0.146-0.291,0.146c-0.13,0-0.274,0.016-0.47,0.047c-0.438,0.082-0.566,0.357-0.6,0.924
			c-0.031,0.518-0.031,0.973-0.031,3.432v0.34c0,0.082,0.048,0.115,0.097,0.115h6.185c0.049,0,0.098-0.033,0.098-0.115v-0.34
			c0-2.459,0-2.914-0.033-3.432c-0.032-0.551-0.162-0.809-0.696-0.924c-0.129-0.031-0.404-0.047-0.631-0.047
			c-0.178,0-0.274-0.033-0.274-0.146s0.112-0.146,0.34-0.146c0.874,0,1.894,0.049,2.331,0.049c0.388,0,1.407-0.049,2.04-0.049
			c0.226,0,0.34,0.033,0.34,0.146s-0.098,0.146-0.292,0.146c-0.129,0-0.275,0.016-0.47,0.047c-0.437,0.082-0.566,0.357-0.599,0.924
			c-0.033,0.518-0.033,0.973-0.033,3.432v2.85c0,1.49,0,2.77,0.081,3.465c0.049,0.453,0.146,0.811,0.632,0.875
			c0.227,0.031,0.583,0.064,0.825,0.064l-0.063,0.291c-1.054,0-2.073-0.049-2.526-0.049c-0.372,0-1.392,0.049-2.023,0.049
			c-0.227,0-0.341-0.049-0.341-0.162c0-0.08,0.065-0.129,0.26-0.129c0.242,0,0.438-0.033,0.583-0.064
			c0.323-0.064,0.404-0.422,0.47-0.891c0.081-0.68,0.081-1.959,0.081-3.449V75.52c0-0.064-0.049-0.098-0.098-0.098h-6.185
			c-0.049,0-0.097,0.016-0.097,0.098v1.424c0,1.49,0,2.77,0.081,3.465c0.049,0.453,0.146,0.811,0.631,0.875
			c0.227,0.031,0.583,0.064,0.826,0.064c0.178,0,0.259,0.049,0.259,0.129c0,0.113-0.129,0.162-0.324,0.162
			c-1.052,0-2.072-0.049-2.525-0.049c-0.373,0-1.393,0.049-2.04,0.049c-0.211,0-0.323-0.049-0.323-0.162
			c0-0.08,0.064-0.129,0.259-0.129c0.243,0,0.437-0.033,0.583-0.064c0.324-0.064,0.405-0.422,0.469-0.891
			C368.833,79.713,368.833,78.434,368.833,76.943 M381.207,81.639l0.065-0.291c0.178,0,0.259,0.049,0.259,0.129
			C381.531,81.59,381.402,81.639,381.207,81.639"/>
	</g>
</g>
</svg>
